<svg height="20" viewBox="0 0 20 20" width="20" xmlns="http://www.w3.org/2000/svg">
    <defs>
        <clipPath id="n9x5dmrqba">
            <path style="fill:#727272" d="M0 0h20v20H0z" data-name="Rectangle 101"
                transform="translate(-4155 15219)" />
        </clipPath>
    </defs>
    <g style="clip-path:url(#n9x5dmrqba)" data-name="Mask Group 10"
        transform="translate(4155 -15219)">
        <path style="fill:#727272"
            d="M20 18.71h-.323V8.065a.323.323 0 0 0-.323-.323h-3.548V.645a.323.323 0 0 0-.323-.323H5.161a.323.323 0 0 0-.323.323v3.871H1.29a.323.323 0 0 0-.323.323V18.71H.645a.323.323 0 0 0-.323.323V20a.323.323 0 0 0 .323.323H20a.323.323 0 0 0 .323-.323v-.968A.323.323 0 0 0 20 18.71zM15.806 8.387h3.226V18.71h-3.226zM5.484.968h9.677V18.71H12.9v-4.839a.323.323 0 0 0-.323-.323H8.065a.323.323 0 0 0-.323.323v4.839H5.484zm6.774 13.226v4.516h-1.613v-4.516zm-2.258 0v4.516H8.387v-4.516zM1.613 5.161h3.226V18.71H1.613zm18.064 14.516H.968v-.323h18.71z"
            data-name="Path 230" transform="translate(-4155.323 15218.678)" />
        <path style="fill:#727272"
            d="M4.194 5.484H2.258a.323.323 0 0 0-.323.323v1.935a.323.323 0 0 0 .323.323h1.936a.323.323 0 0 0 .323-.323V5.806a.323.323 0 0 0-.323-.322zm-.323 1.935h-1.29v-1.29h1.29z"
            data-name="Path 231" transform="translate(-4155.323 15218.678)" />
        <path style="fill:#727272"
            d="M4.194 8.71H2.258a.323.323 0 0 0-.323.323v1.935a.323.323 0 0 0 .323.323h1.936a.323.323 0 0 0 .323-.323V9.032a.323.323 0 0 0-.323-.322zm-.323 1.935h-1.29v-1.29h1.29z"
            data-name="Path 232" transform="translate(-4155.323 15218.678)" />
        <path style="fill:#727272"
            d="M4.194 11.935H2.258a.323.323 0 0 0-.323.323v1.935a.323.323 0 0 0 .323.323h1.936a.323.323 0 0 0 .323-.323v-1.935a.323.323 0 0 0-.323-.323zm-.323 1.935h-1.29v-1.29h1.29z"
            data-name="Path 233" transform="translate(-4155.323 15218.678)" />
        <path style="fill:#727272"
            d="M16.452 11.29h1.935a.323.323 0 0 0 .323-.323V9.032a.323.323 0 0 0-.323-.323h-1.935a.323.323 0 0 0-.323.323v1.935a.323.323 0 0 0 .323.323zm.323-1.935h1.29v1.29h-1.29z"
            data-name="Path 234" transform="translate(-4155.323 15218.678)" />
        <path style="fill:#727272"
            d="M16.452 14.516h1.935a.323.323 0 0 0 .323-.323v-1.935a.323.323 0 0 0-.323-.323h-1.935a.323.323 0 0 0-.323.323v1.935a.323.323 0 0 0 .323.323zm.323-1.935h1.29v1.29h-1.29z"
            data-name="Path 235" transform="translate(-4155.323 15218.678)" />
        <path style="fill:#727272"
            d="M6.452 12.581h7.742a.323.323 0 0 0 .323-.323V9.677a.323.323 0 0 0-.323-.323H6.452a.323.323 0 0 0-.323.323v2.581a.323.323 0 0 0 .323.323zM10 11.935H8.71V10H10zM10.645 10h1.29v1.935h-1.29zm3.226 1.935h-1.29V10h1.29zM6.774 10h1.29v1.935h-1.29z"
            data-name="Path 236" transform="translate(-4155.323 15218.678)" />
        <path style="fill:#727272"
            d="M6.452 8.71h7.742a.323.323 0 0 0 .323-.323V5.806a.323.323 0 0 0-.323-.323H6.452a.323.323 0 0 0-.323.323v2.581a.323.323 0 0 0 .323.323zM10 8.065H8.71V6.129H10zm.645-1.935h1.29v1.935h-1.29zm3.226 1.935h-1.29V6.129h1.29zm-7.1-1.935h1.29v1.935H6.774z"
            data-name="Path 237" transform="translate(-4155.323 15218.678)" />
        <path style="fill:#727272"
            d="M6.452 4.839h7.742a.323.323 0 0 0 .323-.323V1.935a.323.323 0 0 0-.323-.323H6.452a.323.323 0 0 0-.323.323v2.581a.323.323 0 0 0 .323.323zM10 4.194H8.71V2.258H10zm.645-1.935h1.29v1.935h-1.29zm3.226 1.935h-1.29V2.258h1.29zm-7.1-1.935h1.29v1.935H6.774z"
            data-name="Path 238" transform="translate(-4155.323 15218.678)" />
    </g>
</svg>
