<svg height="18" viewBox="0 0 16.802 18" width="16.802" xmlns="http://www.w3.org/2000/svg">
    <path
        d="M16.799 4.8a4.769 4.769 0 0 1-1.4 3.4l-8.647 8.75a3.6 3.6 0 1 1-5.095-5.089l6.242-6.217a2.361 2.361 0 0 1 3.324-.068 2.232 2.232 0 0 1 .649 1.663 2.443 2.443 0 0 1-.72 1.661l-5.928 5.926a.6.6 0 0 1-.849-.849l5.924-5.928a1.244 1.244 0 0 0 .371-.845 1.044 1.044 0 0 0-.3-.78 1.16 1.16 0 0 0-1.629.07l-6.242 6.211a2.402 2.402 0 0 0 3.4 3.395l8.647-8.75a3.6 3.6 0 1 0-5.089-5.094l-8.435 8.371a.6.6 0 0 1-.846-.852L8.608 1.4a4.8 4.8 0 0 1 8.191 3.4z"
        data-name="Path 61" />
</svg>
