<svg height="20" viewBox="0 0 20 20" width="20" xmlns="http://www.w3.org/2000/svg">
    <path style="fill:#fff"
        d="M18.333 1.333h-.667V1a1 1 0 1 0-2 0v.333h-1.333V1a1 1 0 1 0-2 0v.333H11V1a1 1 0 1 0-2 0v.333H7.667V1a1 1 0 1 0-2 0v.333H4.333V1a1 1 0 1 0-2 0v.333h-.666A1.669 1.669 0 0 0 0 3v12.667a1.669 1.669 0 0 0 1.667 1.667H3V18a.667.667 0 0 0-.667.667v.667A.667.667 0 0 0 3 20h14a.667.667 0 0 0 .667-.667v-.667A.667.667 0 0 0 17 18v-.667h1.333A1.669 1.669 0 0 0 20 15.667V3a1.669 1.669 0 0 0-1.667-1.667zm-2-.333A.333.333 0 1 1 17 1v1.333a.333.333 0 1 1-.667 0zM13 1a.333.333 0 0 1 .667 0v1.333a.333.333 0 0 1-.667 0zM9.667 1a.333.333 0 0 1 .667 0v1.333a.333.333 0 0 1-.667 0zM6.333 1A.333.333 0 1 1 7 1v1.333a.333.333 0 1 1-.667 0zM3 1a.333.333 0 0 1 .667 0v1.333a.333.333 0 0 1-.667 0zM1.667 2h.667v.333a1 1 0 0 0 2 0V2h1.333v.333a1 1 0 1 0 2 0V2H9v.333a1 1 0 0 0 2 0V2h1.333v.333a1 1 0 1 0 2 0V2h1.333v.333a1 1 0 0 0 2 0V2h.667a1 1 0 0 1 1 1v1H.667V3a1 1 0 0 1 1-1zM7 7.92a1.773 1.773 0 0 1 .333-.833 1.708 1.708 0 0 1 .333.873.391.391 0 0 1-.127.293.31.31 0 0 1-.244.078A.39.39 0 0 1 7 7.92zM13.667 11a.667.667 0 0 1 .667.667v.033a1.5 1.5 0 0 0-.662.376.749.749 0 0 1-1.123 0 1.4 1.4 0 0 0-1.99 0 .747.747 0 0 1-1.121 0 1.4 1.4 0 0 0-1.989 0 .747.747 0 0 1-1.121 0 1.506 1.506 0 0 0-.661-.376v-.037A.667.667 0 0 1 6.333 11zm-4-3.414A1.773 1.773 0 0 1 10 6.753a1.708 1.708 0 0 1 .333.873.391.391 0 0 1-.127.293.314.314 0 0 1-.244.081.39.39 0 0 1-.3-.411zm2.667.333a1.773 1.773 0 0 1 .333-.833A1.708 1.708 0 0 1 13 7.96a.391.391 0 0 1-.127.293.31.31 0 0 1-.244.078.39.39 0 0 1-.3-.411zm-6.667 4.5a1.464 1.464 0 0 1 .227.17 1.4 1.4 0 0 0 1.989 0 .747.747 0 0 1 1.12 0 1.4 1.4 0 0 0 1.989 0 .749.749 0 0 1 1.123 0 1.4 1.4 0 0 0 1.99 0 1.472 1.472 0 0 1 .228-.171v1.251H5.667zm-.333 1.917h10.333a.667.667 0 0 1 .667.667v.022a2.247 2.247 0 0 0-.95.359 1.692 1.692 0 0 1-1.881 0 2.352 2.352 0 0 0-2.567 0 1.687 1.687 0 0 1-1.879 0A2.2 2.2 0 0 0 7.775 15a2.2 2.2 0 0 0-1.282.381 1.549 1.549 0 0 1-.939.286 1.55 1.55 0 0 1-.939-.286 2.248 2.248 0 0 0-.949-.359V15a.667.667 0 0 1 .667-.667zm11.667 5H3v-.667h14zM3.667 18v-2.305a1.678 1.678 0 0 1 .606.258 2.2 2.2 0 0 0 1.282.381 2.2 2.2 0 0 0 1.282-.381 1.55 1.55 0 0 1 .938-.286 1.551 1.551 0 0 1 .939.286 2.348 2.348 0 0 0 2.565 0 1.691 1.691 0 0 1 1.881 0 2.352 2.352 0 0 0 2.567 0 1.688 1.688 0 0 1 .607-.258V18zm14.667-1.333H17V15a1.333 1.333 0 0 0-1.333-1.333H15v-2a1.333 1.333 0 0 0-1.333-1.333H13V8.94a1 1 0 0 0 .315-.188 1.058 1.058 0 0 0 .352-.793 2.478 2.478 0 0 0-.567-1.406.562.562 0 0 0-.877 0 2.556 2.556 0 0 0-.559 1.333 1.075 1.075 0 0 0 .665 1.048v1.4h-2V8.607a1 1 0 0 0 .315-.188A1.058 1.058 0 0 0 11 7.626a2.478 2.478 0 0 0-.562-1.407.562.562 0 0 0-.877 0A2.556 2.556 0 0 0 9 7.555 1.075 1.075 0 0 0 9.667 8.6v1.73h-2V8.94a1 1 0 0 0 .315-.188 1.058 1.058 0 0 0 .352-.793 2.478 2.478 0 0 0-.562-1.407.562.562 0 0 0-.877 0 2.556 2.556 0 0 0-.559 1.333A1.075 1.075 0 0 0 7 8.936v1.4h-.667A1.333 1.333 0 0 0 5 11.667v2h-.667A1.333 1.333 0 0 0 3 15v1.667H1.667a1 1 0 0 1-1-1v-11h18.666v11a1 1 0 0 1-1 1z" />
</svg>
