<svg height="18.926" viewBox="0 0 20 18.926" width="20" xmlns="http://www.w3.org/2000/svg">
    <g data-name="Group 157">
        <path style="fill:#777"
            d="M19.3 30.918h-.036v-.461a.7.7 0 0 0-.7-.7h-.836v-.637a.567.567 0 0 0-.535-.565v-5.972a.567.567 0 0 0 .535-.565v-.635h.811a.561.561 0 0 0 .561-.561v-.6h.427a.456.456 0 0 0 .455-.455v-.517a.455.455 0 0 0-.239-.4l-6.723-3.634a.293.293 0 1 0-.279.516l6.65 3.6v.307H.609v-.3l9.535-5 1.388.75a.293.293 0 1 0 .279-.516l-1.388-.751a.583.583 0 0 0-.549 0L.266 18.848a.454.454 0 0 0-.244.4v.516a.456.456 0 0 0 .455.455H.9v.6a.561.561 0 0 0 .561.561h.811v.635a.567.567 0 0 0 .535.565v3.888a.293.293 0 1 0 .587 0v-3.884h.939v5.969H3.4v-.7a.293.293 0 0 0-.587 0v.705a.567.567 0 0 0-.535.565v.635H1.44a.7.7 0 0 0-.7.7v.461H.7a.7.7 0 0 0-.7.7v.614a.434.434 0 0 0 .434.434h19.132a.434.434 0 0 0 .434-.433v-.614a.7.7 0 0 0-.7-.702zM1.491 20.8v-.573h17.018v.573zm15.646 8.34v.615h-2.009v-.615zm-1.474-.587v-5.969h.937v5.969h-.939zM15.128 22v-.615h2.009V22zM13.1 28.555v-5.972a.567.567 0 0 0 .535-.565v-.635h.906v.635a.567.567 0 0 0 .535.565v5.972a.567.567 0 0 0-.535.565v.635h-.906v-.635a.567.567 0 0 0-.535-.565zm-.052.585v.615H11.04v-.615zm-1.474-.587v-5.969h.939v5.969h-.939zM11.04 22v-.615h2.009V22zm-2.028 6.555v-5.972a.567.567 0 0 0 .535-.565v-.635h.906v.635a.567.567 0 0 0 .535.565v5.972a.567.567 0 0 0-.535.565v.635h-.906v-.635a.567.567 0 0 0-.535-.565zm-.293.585h.241v.615H6.951v-.615h1.768zm-1.232-.587v-5.969h.939v5.969h-.94zM6.951 22v-.615H8.96V22zm-2.027 6.555v-5.972a.567.567 0 0 0 .535-.565v-.635h.906v.635a.567.567 0 0 0 .535.565v5.972a.567.567 0 0 0-.535.565v.635h-.906v-.635a.567.567 0 0 0-.535-.565zM2.863 22v-.615h2.009V22zm0 7.142h2.009v.615H2.863zm-1.538 1.315a.116.116 0 0 1 .115-.115h17.12a.116.116 0 0 1 .115.115v.461H1.325zm18.089 1.624H.587v-.461a.116.116 0 0 1 .113-.115h18.6a.116.116 0 0 1 .115.115z"
            data-name="Path 122" transform="translate(0 -13.742)" />
    </g>
</svg>
