<svg height="20" viewBox="0 0 20 20" width="20" xmlns="http://www.w3.org/2000/svg">
    <defs>
        <clipPath id="ife21e3l5a">
            <path style="fill:#727272" d="M0 0h20v20H0z" data-name="Rectangle 105"
                transform="translate(-4155 15163)" />
        </clipPath>
    </defs>
    <g style="clip-path:url(#ife21e3l5a)" data-name="Mask Group 11"
        transform="translate(4155 -15163)">
        <path style="fill:#727272"
            d="M19 2.667h-1.667V2a1.333 1.333 0 0 0-2.667 0v.667H12V2a1.333 1.333 0 1 0-2.667 0v.667H6.667V2A1.333 1.333 0 0 0 4 2v.667H2.333A1.667 1.667 0 0 0 .667 4.333v13.334a1.667 1.667 0 0 0 1.667 1.667h9.333a.333.333 0 1 0 0-.667H2.333a1 1 0 0 1-1-1V7.333H20V13a.333.333 0 0 0 .667 0V4.333A1.667 1.667 0 0 0 19 2.667zM15.333 2a.667.667 0 0 1 1.333 0v2a.667.667 0 1 1-1.333 0zM10 2a.667.667 0 0 1 1.333 0v2A.667.667 0 1 1 10 4zM4.667 2A.667.667 0 1 1 6 2v2a.667.667 0 1 1-1.333 0zM20 6.667H1.333V4.333a1 1 0 0 1 1-1H4V4a1.333 1.333 0 0 0 2.667 0v-.667h2.666V4A1.333 1.333 0 1 0 12 4v-.667h2.667V4a1.333 1.333 0 1 0 2.667 0v-.667H19a1 1 0 0 1 1 1z"
            data-name="Path 239" transform="translate(-4155.667 15162.333)" />
        <path style="fill:#727272"
            d="M10 9.667A.667.667 0 0 0 9.333 9H8a.667.667 0 0 0-.667.667v1a.667.667 0 0 0 .667.666h1.333a.667.667 0 0 0 .667-.666zm-2 1v-1h1.333v1z"
            data-name="Path 240" transform="translate(-4155.667 15162.333)" />
        <path style="fill:#727272"
            d="M6 9.667A.667.667 0 0 0 5.333 9H4a.667.667 0 0 0-.667.667v1a.667.667 0 0 0 .667.666h1.333A.667.667 0 0 0 6 10.667zm-2 1v-1h1.333v1z"
            data-name="Path 241" transform="translate(-4155.667 15162.333)" />
        <path style="fill:#727272"
            d="M17.333 11.333a.667.667 0 0 0 .667-.666v-1A.667.667 0 0 0 17.333 9H16a.667.667 0 0 0-.667.667v1a.667.667 0 0 0 .667.667zM16 9.667h1.333v1H16z"
            data-name="Path 242" transform="translate(-4155.667 15162.333)" />
        <path style="fill:#727272"
            d="M10 12.667A.667.667 0 0 0 9.333 12H8a.667.667 0 0 0-.667.667v1a.667.667 0 0 0 .667.666h1.333a.667.667 0 0 0 .667-.666zm-2 1v-1h1.333v1z"
            data-name="Path 243" transform="translate(-4155.667 15162.333)" />
        <path style="fill:#727272"
            d="M6 12.667A.667.667 0 0 0 5.333 12H4a.667.667 0 0 0-.667.667v1a.667.667 0 0 0 .667.666h1.333A.667.667 0 0 0 6 13.667zm-2 1v-1h1.333v1z"
            data-name="Path 244" transform="translate(-4155.667 15162.333)" />
        <path style="fill:#727272"
            d="M9.333 15H8a.667.667 0 0 0-.667.667v1a.667.667 0 0 0 .667.666h1.333a.667.667 0 0 0 .667-.666v-1A.667.667 0 0 0 9.333 15zM8 16.667v-1h1.333v1z"
            data-name="Path 245" transform="translate(-4155.667 15162.333)" />
        <path style="fill:#727272"
            d="M12 11.333h1.333a.667.667 0 0 0 .667-.666v-1A.667.667 0 0 0 13.333 9H12a.667.667 0 0 0-.667.667v1a.667.667 0 0 0 .667.666zm0-1.667h1.333v1H12z"
            data-name="Path 246" transform="translate(-4155.667 15162.333)" />
        <path style="fill:#727272"
            d="M11.333 13.667a.667.667 0 0 0 .667.667.333.333 0 1 0 0-.667v-1h1.333a.333.333 0 0 0 0-.667H12a.667.667 0 0 0-.667.667z"
            data-name="Path 247" transform="translate(-4155.667 15162.333)" />
        <path style="fill:#727272"
            d="M5.333 15H4a.667.667 0 0 0-.667.667v1a.667.667 0 0 0 .667.666h1.333A.667.667 0 0 0 6 16.667v-1A.667.667 0 0 0 5.333 15zM4 16.667v-1h1.333v1z"
            data-name="Path 248" transform="translate(-4155.667 15162.333)" />
        <path style="fill:#727272"
            d="M16.333 12a4.333 4.333 0 1 0 4.333 4.333A4.333 4.333 0 0 0 16.333 12zm0 8A3.667 3.667 0 1 1 20 16.333 3.667 3.667 0 0 1 16.333 20z"
            data-name="Path 249" transform="translate(-4155.667 15162.333)" />
        <path style="fill:#727272"
            d="m18.259 14.936-2.593 2.593-1.178-1.179a.333.333 0 1 0-.471.471l1.414 1.414a.333.333 0 0 0 .471 0l2.828-2.828a.333.333 0 1 0-.471-.471z"
            data-name="Path 250" transform="translate(-4155.667 15162.333)" />
    </g>
</svg>
