<svg height="19.919" viewBox="0 0 20 19.919" width="20" xmlns="http://www.w3.org/2000/svg">
    <g id="phone-outgoing" transform="translate(-4.491 -4.5)">
        <path
            d="M22.116,24.419h-.153C6.947,23.576,4.8,10.859,4.5,6.952A2.307,2.307,0,0,1,6.641,4.5h4.214a1.571,1.571,0,0,1,1.456,1l1.073,2.835a1.7,1.7,0,0,1-.306,1.685l-1.609,1.609a7.169,7.169,0,0,0,5.822,5.822l1.685-1.609a1.518,1.518,0,0,1,1.685-.306l2.911,1.149a1.542,1.542,0,0,1,.919,1.456v3.984a2.371,2.371,0,0,1-2.375,2.3ZM6.794,6.032a.724.724,0,0,0-.766.766v.077c.383,4.52,2.6,15.246,16.012,16.012a.833.833,0,0,0,.843-.69V18.06l-2.911-1.149-2.222,2.222-.306-.077c-6.665-.843-7.585-7.508-7.585-7.585l-.077-.383,2.145-2.222L10.854,6.032Z"
            data-name="Path 270" fill="#1db712" id="Path_270" transform="translate(0)" />
        <path d="M28.532,6V7.532h3.524L27,12.589l1.073,1.073L33.129,8.6v3.524h1.532V6Z"
            data-name="Path 271" fill="#1db712" id="Path_271"
            transform="translate(-11.013 -0.734)" />
    </g>
</svg>
