<svg height="17" viewBox="0 0 20 17" width="20" xmlns="http://www.w3.org/2000/svg">
    <path d="M10 4a5 5 0 1 0 5 5 5 5 0 0 0-5-5zm0 9a4 4 0 1 1 4-4 4 4 0 0 1-4 4z"
        data-name="Path 62" />
    <path
        d="M16.5 2h-2.19l-.415-.83A2.29 2.29 0 0 0 12 0H8a2.29 2.29 0 0 0-1.9 1.17L5.69 2H3.5A3.5 3.5 0 0 0 0 5.5v8A3.5 3.5 0 0 0 3.5 17h13a3.5 3.5 0 0 0 3.5-3.5v-8A3.5 3.5 0 0 0 16.5 2zM19 13.5a2.5 2.5 0 0 1-2.5 2.5h-13A2.5 2.5 0 0 1 1 13.5v-8A2.5 2.5 0 0 1 3.5 3H6a.5.5 0 0 0 .445-.275L7 1.62A1.28 1.28 0 0 1 8 1h4a1.28 1.28 0 0 1 1 .62l.555 1.1A.5.5 0 0 0 14 3h2.5A2.5 2.5 0 0 1 19 5.5z"
        data-name="Path 63" />
</svg>
