<svg height="20" viewBox="0 0 18.14 20" width="18.14" xmlns="http://www.w3.org/2000/svg">
    <path style="fill:#777"
        d="M16.528.645H-.052a.7.7 0 0 1-.7-.7.7.7 0 0 1 .7-.7h16.58a.7.7 0 0 1 .7.7.7.7 0 0 1-.7.7z"
        data-name="Line 6" transform="translate(.836 7.637)" />
    <path style="fill:#777"
        d="M-.044.645h-.008a.7.7 0 0 1-.7-.7.7.7 0 0 1 .7-.7h.008a.7.7 0 0 1 .7.7.7.7 0 0 1-.7.7z"
        data-name="Line 7" transform="translate(13.254 11.271)" />
    <path style="fill:#777"
        d="M-.044.645h-.008a.7.7 0 0 1-.7-.7.7.7 0 0 1 .7-.7h.008a.7.7 0 0 1 .7.7.7.7 0 0 1-.7.7z"
        data-name="Line 8" transform="translate(9.127 11.271)" />
    <path style="fill:#777"
        d="M-.044.645h-.008a.7.7 0 0 1-.7-.7.7.7 0 0 1 .7-.7h.008a.7.7 0 0 1 .7.7.7.7 0 0 1-.7.7z"
        data-name="Line 9" transform="translate(4.99 11.271)" />
    <path style="fill:#777"
        d="M-.044.645h-.008a.7.7 0 0 1-.7-.7.7.7 0 0 1 .7-.7h.008a.7.7 0 0 1 .7.7.7.7 0 0 1-.7.7z"
        data-name="Line 10" transform="translate(13.254 14.886)" />
    <path style="fill:#777"
        d="M-.044.645h-.008a.7.7 0 0 1-.7-.7.7.7 0 0 1 .7-.7h.008a.7.7 0 0 1 .7.7.7.7 0 0 1-.7.7z"
        data-name="Line 11" transform="translate(9.127 14.886)" />
    <path style="fill:#777"
        d="M-.044.645h-.008a.7.7 0 0 1-.7-.7.7.7 0 0 1 .7-.7h.008a.7.7 0 0 1 .7.7.7.7 0 0 1-.7.7z"
        data-name="Line 12" transform="translate(4.99 14.886)" />
    <path style="fill:#777"
        d="M-.052 3.707a.7.7 0 0 1-.7-.7V-.052a.7.7 0 0 1 .7-.7.7.7 0 0 1 .7.7v3.061a.7.7 0 0 1-.7.698z"
        data-name="Line 13" transform="translate(12.884 .75)" />
    <path style="fill:#777"
        d="M-.052 3.707a.7.7 0 0 1-.7-.7V-.052a.7.7 0 0 1 .7-.7.7.7 0 0 1 .7.7v3.061a.7.7 0 0 1-.7.698z"
        data-name="Line 14" transform="translate(5.37 .75)" />
    <path style="fill:#777"
        d="M4.386.829h7.877a5.22 5.22 0 0 1 3.8 1.377 4.994 4.994 0 0 1 1.327 3.642v8.487a4.981 4.981 0 0 1-1.407 3.718 5.268 5.268 0 0 1-3.729 1.308H4.386A5.221 5.221 0 0 1 .657 18.03 5.088 5.088 0 0 1-.75 14.264V5.846A4.965 4.965 0 0 1 .662 2.132 5.275 5.275 0 0 1 4.386.829zm7.868 17.136c2.412 0 3.74-1.289 3.74-3.63V5.846a3.6 3.6 0 0 0-.918-2.655 3.873 3.873 0 0 0-2.814-.966H4.386c-2.412 0-3.74 1.286-3.74 3.621v8.418c0 2.386 1.328 3.7 3.74 3.7z"
        data-name="Path 122" transform="translate(.75 .64)" />
</svg>
