<svg height="24" viewBox="0 0 19.014 24" width="19.014" xmlns="http://www.w3.org/2000/svg">
    <path style="fill:#f0a04b"
        d="M13.433.185A.581.581 0 0 0 13.016 0H3.654A3.167 3.167 0 0 0 .5 3.148v17.7A3.167 3.167 0 0 0 3.654 24h12.707a3.167 3.167 0 0 0 3.154-3.148V6.794a.624.624 0 0 0-.168-.406zm.167 1.861L17.561 6.2h-2.574A1.381 1.381 0 0 1 13.6 4.823zm2.759 20.794H3.654a2.008 2.008 0 0 1-1.994-1.989V3.148a2.008 2.008 0 0 1 1.994-1.989h8.788v3.664a2.536 2.536 0 0 0 2.545 2.539h3.368v13.49a2 2 0 0 1-1.994 1.989zm0 0"
        data-name="Path 208" transform="translate(-.5)" />
    <path style="fill:#f0a04b"
        d="M99.294 401.934h-9.542a.58.58 0 0 0 0 1.159H99.3a.58.58 0 1 0-.006-1.159zm0 0"
        data-name="Path 209" transform="translate(-85.015 -383.093)" />
    <path style="fill:#f0a04b"
        d="M122.175 179.074a.575.575 0 0 0 .846 0l3.4-3.646a.578.578 0 1 0-.846-.788l-2.394 2.568v-6.33a.58.58 0 0 0-1.159 0v6.33l-2.388-2.568a.578.578 0 0 0-.846.788zm0 0"
        data-name="Path 210" transform="translate(-113.09 -162.314)" />
</svg>
