<svg height="20" viewBox="0 0 20 20" width="20" xmlns="http://www.w3.org/2000/svg">
    <path style="fill:#777"
        d="M10 20A10 10 0 0 1 2.929 2.929a10 10 0 0 1 14.142 14.142A9.934 9.934 0 0 1 10 20zm0-18.75A8.75 8.75 0 1 0 18.75 10 8.76 8.76 0 0 0 10 1.25z"
        data-name="Path 160" />
    <path style="fill:#777"
        d="M186.813 101.625a1.563 1.563 0 1 1 1.563-1.562.625.625 0 0 0 1.25 0 2.817 2.817 0 0 0-2.187-2.742v-.7a.625.625 0 0 0-1.25 0v.7a2.812 2.812 0 0 0 .625 5.554 1.563 1.563 0 1 1-1.562 1.563.625.625 0 0 0-1.25 0 2.817 2.817 0 0 0 2.188 2.742v.7a.625.625 0 0 0 1.25 0v-.7a2.812 2.812 0 0 0-.625-5.554z"
        data-name="Path 161" transform="translate(-176.813 -92.25)" />
</svg>
