<svg height="20" viewBox="0 0 20 20" width="20" xmlns="http://www.w3.org/2000/svg">
    <path style="fill:#0b7fff"
        d="M19.374 8.491 11.509.626a2.133 2.133 0 0 0-3.018 0L.625 8.491a2.133 2.133 0 0 0 0 3.018l7.866 7.866a2.133 2.133 0 0 0 3.018 0l7.866-7.866a2.133 2.133 0 0 0 0-3.018zm-.884 2.134-7.866 7.866a.883.883 0 0 1-1.25 0l-7.865-7.866a.883.883 0 0 1 0-1.25L9.375 1.51a.883.883 0 0 1 1.25 0l7.866 7.866a.868.868 0 0 1 .259.625.878.878 0 0 1-.259.625z"
        data-name="Path 28" />
    <path style="fill:#0b7fff"
        d="M160.658 146.447c-.049-.074.1.087-2.2-2.248a.625.625 0 0 0-.891.877l1.107 1.124h-6.041a.625.625 0 0 0-.625.625v4.062a.625.625 0 0 0 1.25 0v-3.437h5.349l-1.107 1.124a.625.625 0 0 0 .891.877l2.051-2.083a.658.658 0 0 0 .216-.921z"
        data-name="Path 29" transform="translate(-146.074 -138.387)" />
</svg>
