<svg height="11.535" viewBox="0 0 20 11.535" width="20" xmlns="http://www.w3.org/2000/svg">
    <path style="fill:#777"
        d="M10.725 22.535c5.37 0 9.62-5.287 9.8-5.511l.2-.256-.2-.256c-.18-.225-4.425-5.512-9.8-5.512s-9.62 5.287-9.8 5.511l-.2.256.2.256c.18.225 4.43 5.512 9.8 5.512zm0-10.711c4.323 0 8.021 3.9 8.935 4.943-.913 1.047-4.606 4.943-8.935 4.943S2.7 17.814 1.79 16.767c.91-1.047 4.61-4.943 8.935-4.943z"
        data-name="Path 71" transform="translate(-.725 -11)" />
    <path style="fill:#777"
        d="M19.708 23.415A3.708 3.708 0 1 0 16 19.708a3.712 3.712 0 0 0 3.708 3.707zm0-6.591a2.884 2.884 0 1 1-2.884 2.884 2.887 2.887 0 0 1 2.884-2.884z"
        data-name="Path 72" transform="translate(-9.708 -13.94)" />
</svg>
