<svg height="14.502" viewBox="0 0 20 14.502" width="20" xmlns="http://www.w3.org/2000/svg">
    <path style="fill:#777"
        d="M34.93 82.7H19.114a2.094 2.094 0 0 0-2.092 2.092V95.11a2.094 2.094 0 0 0 2.092 2.09H34.93a2.094 2.094 0 0 0 2.092-2.092V84.792A2.094 2.094 0 0 0 34.93 82.7zm-3.72 7.248 4.975-3.9v8.734zm-12.1-6.412h15.82a1.257 1.257 0 0 1 1.255 1.255v.188L28.134 91.3a1.673 1.673 0 0 1-2.061 0l-8.215-6.319v-.186a1.257 1.257 0 0 1 1.256-1.258zm3.868 6.438-5.123 4.82v-8.76zm11.952 6.392H19.114a1.256 1.256 0 0 1-1.069-.6l5.608-5.276 1.907 1.467a2.508 2.508 0 0 0 3.089 0l1.9-1.488L36 95.765a1.256 1.256 0 0 1-1.07.601z"
        data-name="mail" transform="translate(-17.022 -82.7)" />
</svg>
