<svg height="19.9" viewBox="0 0 20 19.9" width="20" xmlns="http://www.w3.org/2000/svg">
    <path style="fill:#fff"
        d="M18.459 49.722a.5.5 0 0 0-.5.5v4.423a1.5 1.5 0 0 1-1.494 1.494H2.491A1.5 1.5 0 0 1 1 54.642v-12.98a1.5 1.5 0 0 1 1.494-1.494h4.419a.5.5 0 1 0 0-1H2.491A2.493 2.493 0 0 0 0 41.662v12.98a2.493 2.493 0 0 0 2.491 2.491h13.976a2.493 2.493 0 0 0 2.491-2.491V50.22a.5.5 0 0 0-.499-.498zm0 0"
        data-name="Path 178" transform="translate(0 -37.234)" />
    <path style="fill:#fff"
        d="M121.561.917a2.241 2.241 0 0 0-3.17 0L109.5 9.8a.5.5 0 0 0-.128.219l-1.169 4.219a.5.5 0 0 0 .613.613l4.219-1.169a.5.5 0 0 0 .219-.128l8.886-8.887a2.244 2.244 0 0 0 0-3.17zm-10.971 9.21 7.273-7.273 2.345 2.346-7.273 7.273zm-.469.94L112 12.942l-2.592.718zm11.32-7.1-.528.528-2.346-2.345.528-.528a1.245 1.245 0 0 1 1.761 0l.585.584a1.247 1.247 0 0 1 0 1.761zm0 0"
        data-name="Path 179" transform="translate(-102.801 -.261)" />
</svg>
