<svg height="14" viewBox="0 0 20 14" width="20" xmlns="http://www.w3.org/2000/svg">
    <g data-name="Group 358">
        <g data-name="Group 79">
            <path d="M16 8H4a1 1 0 0 1 0-2h12a1 1 0 0 1 0 2z" data-name="Path 37" />
        </g>
        <g data-name="Group 80">
            <path d="M13 14H7a1 1 0 0 1 0-2h6a1 1 0 0 1 0 2z" data-name="Path 38" />
        </g>
        <g data-name="Group 81">
            <path
                d="M19 2H1a.945.945 0 0 1-1-1 .945.945 0 0 1 1-1h18a.945.945 0 0 1 1 1 .945.945 0 0 1-1 1z"
                data-name="Path 39" />
        </g>
    </g>
</svg>
