<svg height="20" viewBox="0 0 20 20" width="20" xmlns="http://www.w3.org/2000/svg">
    <g data-name="Group 146" transform="translate(.041)">
        <rect style="fill:#c42126" data-name="Rectangle 59" transform="translate(.004 10.935)"
            width="19.911" />
        <rect style="fill:#c42126" data-name="Rectangle 60" transform="translate(1.041 5.476)"
            width="17.836" />
        <rect style="fill:#c42126" data-name="Rectangle 61" transform="translate(.332 7.296)"
            width="19.254" />
        <path style="fill:#c42126" d="M101.779 431.346z" data-name="Path 73"
            transform="translate(-97.522 -413.132)" />
        <path style="fill:#c42126"
            d="M223.574 0c-.2 0-.391.007-.585.018h1.17a10.33 10.33 0 0 0-.585-.018z"
            data-name="Path 74" transform="translate(-213.615)" />
        <rect style="fill:#c42126" data-name="Rectangle 62" transform="translate(0 9.116)"
            width="19.917" />
    </g>
    <path style="fill:#e7e7e7"
        d="M289.434 45.344h4.775a10.051 10.051 0 0 0-1.957-1.819h-3.586a9.508 9.508 0 0 1 .768 1.819z"
        data-name="Path 75" transform="translate(-276.479 -41.687)" />
    <path style="fill:#dc3027"
        d="M245.307 2.25h3.586A9.945 9.945 0 0 0 243.7.43h-.3c.9.114 1.32.786 1.907 1.82z"
        data-name="Path 76" transform="translate(-233.119 -.412)" />
    <path style="fill:#e7e7e7"
        d="M324.143 131.529a9.933 9.933 0 0 0-.709-1.819h-5.494c.111.584.2 1.194.264 1.819z"
        data-name="Path 77" transform="translate(-304.516 -124.233)" />
    <path style="fill:#dc3027"
        d="M300.339 88.431h5.8a10.007 10.007 0 0 0-1.187-1.819h-5.069a16.047 16.047 0 0 1 .456 1.819z"
        data-name="Path 78" transform="translate(-287.224 -82.955)" />
    <path style="fill:#e7e7e7"
        d="M329.178 217.712h6.056c.029-.308.045-.62.045-.935 0-.3-.016-.593-.041-.885h-6.058c.02.608.02 1.216-.002 1.82z"
        data-name="Path 79" transform="translate(-315.279 -206.777)" />
    <path style="fill:#dc3027"
        d="M324.68 174.621a9.958 9.958 0 0 0-.332-1.819h-6.194c.062.6.1 1.205.123 1.819z"
        data-name="Path 80" transform="translate(-304.721 -165.506)" />
    <path style="fill:#e7e7e7"
        d="M315.465 303.894h5.572a9.919 9.919 0 0 0 .721-1.819h-6.023a21.822 21.822 0 0 1-.27 1.819z"
        data-name="Path 81" transform="translate(-302.145 -289.32)" />
    <path style="fill:#dc3027"
        d="M327.729 260.807a9.937 9.937 0 0 0 .342-1.819h-6.245a25.65 25.65 0 0 1-.127 1.819z"
        data-name="Path 82" transform="translate(-308.116 -248.053)" />
    <path style="fill:#e7e7e7"
        d="M292.779 390.08a10.058 10.058 0 0 0 1.986-1.819h-4.692a9.293 9.293 0 0 1-.782 1.819z"
        data-name="Path 83" transform="translate(-277.076 -371.867)" />
    <g data-name="Group 147">
        <path style="fill:#dc3027"
            d="M303.625 346.986h4.868a10.013 10.013 0 0 0 1.2-1.819h-5.613a15.831 15.831 0 0 1-.455 1.819z"
            data-name="Path 84" transform="translate(-290.805 -330.593)" />
        <path style="fill:#dc3027" d="M226.879 473.459h-.061z" data-name="Path 85"
            transform="translate(-217.241 -453.466)" />
        <path style="fill:#dc3027"
            d="M236.837 433.147a9.953 9.953 0 0 0 5.7-1.787h-3.617c-.642 1.107-1.066 1.787-2.083 1.787z"
            data-name="Path 86" transform="translate(-226.837 -413.147)" />
    </g>
    <path style="fill:#c42126"
        d="M228.617 473.516c-.121 0-.242 0-.362-.007.122.004.245.007.362.007z" data-name="Path 87"
        transform="translate(-218.617 -453.516)" />
    <path style="fill:#f3f4f5"
        d="M64 43.525h-8.3a10.052 10.052 0 0 0-1.957 1.819h11.021A9.506 9.506 0 0 0 64 43.525z"
        data-name="Path 88" transform="translate(-51.478 -41.687)" />
    <path style="fill:#e73625"
        d="M100.092 2.25h8.293a3.188 3.188 0 0 0-2.242-1.82h-.862a9.944 9.944 0 0 0-5.189 1.82z"
        data-name="Path 89" transform="translate(-95.866 -.412)" />
    <path style="fill:#f3f4f5"
        d="M8.835 131.529h13.631a21.91 21.91 0 0 0-.264-1.819H9.544a9.932 9.932 0 0 0-.709 1.819z"
        data-name="Path 90" transform="translate(-8.462 -124.233)" />
    <path style="fill:#e73625"
        d="M26.824 86.609a10.013 10.013 0 0 0-1.187 1.819h12.657a16.035 16.035 0 0 0-.453-1.819z"
        data-name="Path 91" transform="translate(-24.554 -82.952)" />
    <path style="fill:#f3f4f5"
        d="M0 216.78c0 .315.016.627.045.935h14.083c.021-.6.021-1.214 0-1.819H.043a10.34 10.34 0 0 0-.043.884z"
        data-name="Path 92" transform="translate(-.002 -206.78)" />
    <path style="fill:#e73625"
        d="M.978 174.621h14.086a25.703 25.703 0 0 0-.123-1.819H1.31a9.947 9.947 0 0 0-.332 1.819z"
        data-name="Path 93" transform="translate(-.937 -165.506)" />
    <path style="fill:#f3f4f5"
        d="M22.787 302.072H9.175a9.927 9.927 0 0 0 .721 1.819h12.621c.113-.583.203-1.191.27-1.819z"
        data-name="Path 94" transform="translate(-8.788 -289.318)" />
    <path style="fill:#e73625"
        d="M1.41 260.807h13.612c.063-.6.106-1.2.127-1.819H1.068a9.95 9.95 0 0 0 .342 1.819z"
        data-name="Path 95" transform="translate(-1.023 -248.053)" />
    <path style="fill:#f3f4f5"
        d="M56.739 390.08h8.191a9.289 9.289 0 0 0 .782-1.819H54.753a10.054 10.054 0 0 0 1.986 1.819z"
        data-name="Path 96" transform="translate(-52.441 -371.867)" />
    <g data-name="Group 148">
        <path style="fill:#e73625"
            d="M26.254 345.166a10.018 10.018 0 0 0 1.2 1.819h10.962a15.863 15.863 0 0 0 .459-1.819z"
            data-name="Path 97" transform="translate(-25.146 -330.592)" />
        <path style="fill:#e73625"
            d="M107.072 433.136h.061c.12 0 .241.007.362.007a2.993 2.993 0 0 0 2.489-1.787h-8.191a9.948 9.948 0 0 0 5.279 1.78z"
            data-name="Path 98" transform="translate(-97.496 -413.146)" />
    </g>
    <path style="fill:#283991" d="M10.759.123a10 10 0 0 0-9.751 9.094h9.751V.123z"
        data-name="Path 99" transform="translate(-.966 -.118)" />
    <g data-name="Group 149">
        <path style="fill:#efefef"
            d="m32.737 134.187.152.469h.494l-.4.29.153.469-.4-.29-.4.29.152-.469-.4-.29h.494z"
            data-name="Path 100" transform="translate(-30.737 -128.521)" />
        <path style="fill:#efefef"
            d="m32.737 173.438.152.469h.494l-.4.29.153.469-.4-.29-.4.29.152-.469-.4-.29h.494z"
            data-name="Path 101" transform="translate(-30.737 -166.115)" />
        <path style="fill:#efefef"
            d="m71.991 75.3.152.469h.493l-.4.29.152.469-.4-.29-.4.29.152-.469-.4-.29h.494z"
            data-name="Path 102" transform="translate(-68.333 -72.117)" />
        <path style="fill:#efefef"
            d="m71.991 114.554.152.469h.493l-.4.29.152.469-.4-.29-.4.29.152-.469-.4-.29h.494z"
            data-name="Path 103" transform="translate(-68.333 -109.717)" />
        <path style="fill:#efefef"
            d="m71.991 153.812.152.469h.493l-.4.29.152.469-.4-.29-.4.29.152-.469-.4-.29h.494z"
            data-name="Path 104" transform="translate(-68.333 -147.318)" />
        <path style="fill:#efefef"
            d="m8.377 164.909-.153-.469.4-.29H8.13l-.011-.034c-.054.168-.1.337-.148.509l.007-.005z"
            data-name="Path 105" transform="translate(-7.635 -157.186)" />
        <path style="fill:#efefef"
            d="m37.153 96.155.4-.29.4.29-.153-.469.4-.29h-.5l-.152-.469-.148.473h-.182a5.23 5.23 0 0 0-.1.155l.187.136z"
            data-name="Path 106" transform="translate(-35.551 -90.918)" />
        <path style="fill:#efefef"
            d="m77.586 47.622.4.29-.152-.469.4-.29h-.285q-.363.271-.7.575l-.06.185z"
            data-name="Path 107" transform="translate(-73.928 -45.162)" />
        <path style="fill:#efefef"
            d="m116.452 26.854.4-.29.4.29-.152-.469.4-.29h-.5l-.021-.063a9.054 9.054 0 0 0-.494.269l.116.084z"
            data-name="Path 108" transform="translate(-111.536 -24.932)" />
        <path style="fill:#efefef"
            d="m111.25 55.671.152.469h.493l-.4.29.152.469-.4-.29-.4.29.153-.469-.4-.29h.494z"
            data-name="Path 109" transform="translate(-105.935 -53.32)" />
        <path style="fill:#efefef"
            d="m111.25 94.929.152.469h.493l-.4.29.152.469-.4-.29-.4.29.152-.469-.4-.29h.494z"
            data-name="Path 110" transform="translate(-105.935 -90.921)" />
        <path style="fill:#efefef"
            d="m111.25 134.187.152.469h.493l-.4.29.152.469-.4-.29-.4.29.152-.469-.4-.29h.494z"
            data-name="Path 111" transform="translate(-105.935 -128.521)" />
        <path style="fill:#efefef"
            d="m111.25 173.438.152.469h.493l-.4.29.152.469-.4-.29-.4.29.153-.466-.4-.29h.494z"
            data-name="Path 112" transform="translate(-105.935 -166.115)" />
        <path style="fill:#efefef"
            d="m150.508 36.038.152.469h.493l-.4.29.152.469-.4-.29-.4.29.153-.469-.4-.29h.494z"
            data-name="Path 113" transform="translate(-143.535 -34.516)" />
        <path style="fill:#efefef"
            d="m150.508 75.3.152.469h.493l-.4.29.152.469-.4-.29-.4.29.153-.469-.4-.29h.494z"
            data-name="Path 114" transform="translate(-143.535 -72.117)" />
        <path style="fill:#efefef"
            d="m150.508 114.554.152.469h.493l-.4.29.152.469-.4-.29-.4.29.153-.469-.4-.29h.494z"
            data-name="Path 115" transform="translate(-143.535 -109.717)" />
        <path style="fill:#efefef"
            d="m150.508 153.812.152.469h.493l-.4.29.152.469-.4-.29-.4.29.153-.469-.4-.29h.494z"
            data-name="Path 116" transform="translate(-143.535 -147.318)" />
        <path style="fill:#efefef"
            d="m189.766 16.413.152.469h.493l-.4.29.152.469-.4-.29-.4.29.153-.469-.4-.29h.493z"
            data-name="Path 117" transform="translate(-181.135 -15.72)" />
        <path style="fill:#efefef"
            d="m189.766 55.671.152.469h.493l-.4.29.152.469-.4-.29-.4.29.153-.469-.4-.29h.493z"
            data-name="Path 118" transform="translate(-181.135 -53.32)" />
        <path style="fill:#efefef"
            d="m189.766 94.929.152.469h.493l-.4.29.152.469-.4-.29-.4.29.153-.469-.4-.29h.493z"
            data-name="Path 119" transform="translate(-181.135 -90.921)" />
        <path style="fill:#efefef"
            d="m189.766 134.187.152.469h.493l-.4.29.152.469-.4-.29-.4.29.153-.469-.4-.29h.493z"
            data-name="Path 120" transform="translate(-181.135 -128.521)" />
        <path style="fill:#efefef"
            d="m189.766 173.438.152.469h.493l-.4.29.152.469-.4-.29-.4.29.153-.469-.4-.29h.493z"
            data-name="Path 121" transform="translate(-181.135 -166.115)" />
    </g>
</svg>
