<svg height="17" viewBox="0 0 21.258 17" width="21.258" xmlns="http://www.w3.org/2000/svg">
    <g data-name="Group 128">
        <g data-name="Group 127">
            <path
                d="M12.437 3.072a2.505 2.505 0 1 0 2.506 2.505 2.505 2.505 0 0 0-2.506-2.505zm0 3.818a1.313 1.313 0 0 1 0-2.625 1.313 1.313 0 1 1 0 2.625z"
                data-name="Path 64" />
            <path
                d="M18.671 0H2.3A2.4 2.4 0 0 0 0 2.476v12.2a2.267 2.267 0 0 0 2.207 2.323h16.464a2.524 2.524 0 0 0 2.587-2.326v-12.2A2.661 2.661 0 0 0 18.671 0zm1.312 14.674a1.256 1.256 0 0 1-1.312 1.133H2.3a1.074 1.074 0 0 1-1.1-1.042v-2.298l4.623-3.4a1.432 1.432 0 0 1 1.849.089l3.251 2.863a2.8 2.8 0 0 0 1.76.656 2.714 2.714 0 0 0 1.432-.388l5.875-3.4v5.786zm0-7.188-6.5 3.788a1.521 1.521 0 0 1-1.76-.149L8.441 8.232a2.654 2.654 0 0 0-3.311-.119l-3.936 2.862v-8.5a1.2 1.2 0 0 1 1.1-1.282h16.377a1.372 1.372 0 0 1 1.312 1.282z"
                data-name="Path 65" />
        </g>
    </g>
</svg>
