<svg height="24" viewBox="0 0 22.8 24" width="22.8" xmlns="http://www.w3.org/2000/svg">
    <path style="fill:#fff"
        d="M17.436 23.25h-2.183a2.086 2.086 0 0 1-2.041-2.083v-3.474a.9.9 0 0 0-.91-.9h-3.25a.9.9 0 0 0-.9.9v3.464a.708.708 0 0 1-.032.212 2.1 2.1 0 0 1-2.09 1.881H3.864A4.607 4.607 0 0 1-.75 18.661V8.812A3.421 3.421 0 0 1 .6 6.111L7.973.179a4.274 4.274 0 0 1 5.319 0L20.7 6.1a3.446 3.446 0 0 1 1.35 2.7v9.863a4.607 4.607 0 0 1-4.614 4.587zm-2.157-1.412h2.157a3.2 3.2 0 0 0 3.207-3.177V8.813a2.041 2.041 0 0 0-.807-1.6l-.012-.009-7.409-5.922a2.87 2.87 0 0 0-3.565 0L1.477 7.218l-.015.012a2.018 2.018 0 0 0-.8 1.592v9.839a3.2 3.2 0 0 0 3.207 3.177H6.03a.689.689 0 0 0 .694-.682.709.709 0 0 1 .022-.174v-3.289a2.319 2.319 0 0 1 2.3-2.309H12.3a2.316 2.316 0 0 1 2.318 2.309v3.474a.681.681 0 0 0 .661.671z"
        data-name="home" transform="translate(.75 .75)" />
</svg>
