<svg height="20.3" viewBox="0 0 20.3 20.3" width="20.3" xmlns="http://www.w3.org/2000/svg">
    <g data-name="help (1)">
        <g data-name="Group 87">
            <g data-name="Group 86">
                <path style="fill:#777;stroke:#777;stroke-width:.3px"
                    d="M246.16 358.4a.4.4 0 1 0 .4.4.4.4 0 0 0-.4-.4z" data-name="Path 53"
                    transform="translate(-236.01 -344.25)" />
            </g>
        </g>
        <g data-name="Group 89">
            <g data-name="Group 88" transform="translate(9.35 13.75)">
                <circle style="fill:#777;stroke:#777;stroke-width:.3px" cx=".8" cy=".8"
                    data-name="Ellipse 9" r=".8" />
            </g>
        </g>
        <g data-name="Group 91">
            <g data-name="Group 90">
                <path style="fill:#777;stroke:#777;stroke-width:.3px"
                    d="M10 0a10 10 0 1 0 10 10A10.011 10.011 0 0 0 10 0zm0 19.2a9.2 9.2 0 1 1 9.2-9.2 9.211 9.211 0 0 1-9.2 9.2z"
                    data-name="Path 54" transform="translate(.15 .15)" />
            </g>
        </g>
        <g data-name="Group 93">
            <g data-name="Group 92">
                <path style="fill:#777;stroke:#777;stroke-width:.3px"
                    d="M189.875 125.183a2.8 2.8 0 0 0-5.554.5.4.4 0 1 0 .8 0 2 2 0 1 1 2.964 1.753 2.523 2.523 0 0 0-1.364 2.247v.8a.4.4 0 1 0 .8 0v-.87a1.712 1.712 0 0 1 .95-1.477 2.813 2.813 0 0 0 1.404-2.953z"
                    data-name="Path 55" transform="translate(-176.971 -117.939)" />
            </g>
        </g>
    </g>
</svg>
