<svg data-name="home (1)" height="24" viewBox="0 0 22.8 24" width="22.8"
    xmlns="http://www.w3.org/2000/svg">
    <path style="fill:#f0a04b"
        d="M7.972 22.538v-3.68a1.7 1.7 0 0 1 1.7-1.7h3.449a1.7 1.7 0 0 1 1.708 1.7v3.67A1.477 1.477 0 0 0 16.3 24h2.353a4.152 4.152 0 0 0 2.932-1.2 4.092 4.092 0 0 0 1.215-2.907V9.439a2.968 2.968 0 0 0-1.074-2.283L13.732.809a3.738 3.738 0 0 0-4.75.085L1.16 7.156A2.969 2.969 0 0 0 0 9.439v10.443A4.133 4.133 0 0 0 4.147 24h2.3a1.478 1.478 0 0 0 1.048-.424 1.456 1.456 0 0 0 .435-1.037z"
        data-name="home (1)" />
</svg>
