<svg height="25.018" viewBox="0 0 23.875 25.018" width="23.875" xmlns="http://www.w3.org/2000/svg">
    <path style="fill:#f0a04b;stroke:#f0a04c;stroke-width:2px"
        d="M18.78 3.358A11.493 11.493 0 0 0 4.149 6.6V3.726a.575.575 0 0 0-1.149 0v4.6a.574.574 0 0 0 .575.574h4.6a.575.575 0 0 0 0-1.149H4.751a10.337 10.337 0 1 1 8.594 16.093.575.575 0 1 0 0 1.149A11.5 11.5 0 0 0 18.78 3.358zM13.345 8.9a.575.575 0 0 0-.575.575V13.5a.574.574 0 0 0 .575.574h2.874a.575.575 0 0 0 0-1.149h-2.3V9.473a.575.575 0 0 0-.574-.573z"
        data-name="history" transform="translate(-2 -.973)" />
</svg>
