<svg height="25.91" viewBox="0 0 22.091 25.91" width="22.091" xmlns="http://www.w3.org/2000/svg">
    <path
        d="M11.045 0h.038a11.059 11.059 0 0 1 11.009 11.083v.13c-.045 2.385-.919 6.094-4.828 10.219l-.005.006a27.469 27.469 0 0 1-4.832 3.986 2.2 2.2 0 0 1-2.763 0 26.87 26.87 0 0 1-6.82-6.4A13.784 13.784 0 0 1 .001 11.08v-.069A11.046 11.046 0 0 1 11.045 0zm9.081 11.184v-.1a9.091 9.091 0 0 0-9.049-9.114h-.031a9.1 9.1 0 0 0-9.08 9.041v.014a11.829 11.829 0 0 0 2.442 6.8l.006.008a24.913 24.913 0 0 0 6.37 5.978.983.983 0 0 1 .107.08.236.236 0 0 0 .309 0 .982.982 0 0 1 .11-.082 25.5 25.5 0 0 0 4.529-3.728c3.472-3.67 4.246-6.859 4.287-8.897z"
        data-name="Path 5" />
    <path
        d="M11.045 6.997a4.208 4.208 0 1 1-4.208 4.208 4.213 4.213 0 0 1 4.208-4.208zm0 6.451a2.242 2.242 0 1 0-2.242-2.243 2.245 2.245 0 0 0 2.242 2.242z"
        data-name="Ellipse 6" />
</svg>
