<svg height="20" viewBox="0 0 16.679 20" width="16.679" xmlns="http://www.w3.org/2000/svg">
    <path style="fill:#727272"
        d="M155.426 75.333h-.353l.007-2.483a5.835 5.835 0 0 0-5.82-5.85h-.016a5.835 5.835 0 0 0-5.836 5.82l-.009 2.492h-.324a2.16 2.16 0 0 0-2.157 2.153l-.018 7.355a2.156 2.156 0 0 0 2.155 2.16L155.4 87a2.16 2.16 0 0 0 2.157-2.153l.02-7.353a2.158 2.158 0 0 0-2.151-2.161zM144.4 72.825a4.845 4.845 0 0 1 4.847-4.831h.013a4.845 4.845 0 0 1 4.831 4.856l-.007 2.481-9.692-.016zm12.173 12.02a1.17 1.17 0 0 1-1.169 1.166l-12.342-.02a1.17 1.17 0 0 1-1.169-1.171l.02-7.355a1.17 1.17 0 0 1 1.167-1.165l12.348.02a1.169 1.169 0 0 1 1.166 1.171z"
        data-name="Path 56" transform="translate(-140.9 -67)" />
    <path style="fill:#727272"
        d="M415.854 564.8h-.863a1.79 1.79 0 0 0-.063 3.58v2.533a.494.494 0 1 0 .989 0v-2.53a1.79 1.79 0 0 0-.063-3.58zm0 2.593h-.863a.8.8 0 0 1 0-1.6h.863a.8.8 0 0 1 0 1.6z"
        data-name="Path 57" transform="translate(-407.081 -553.613)" />
</svg>
