<svg height="20.714" viewBox="0 0 20 20.714" width="20" xmlns="http://www.w3.org/2000/svg">
    <g data-name="Layer 12">
        <path style="fill:#727272"
            d="M22 11.714a10 10 0 0 1-20 0 10.45 10.45 0 0 1 3.079-7.435.714.714 0 1 1 .986 1.007 9.007 9.007 0 0 0-2.636 6.429 8.571 8.571 0 0 0 17.143 0 9.007 9.007 0 0 0-2.636-6.429.714.714 0 0 1 .986-1.029A10.45 10.45 0 0 1 22 11.714zm-10 1.429a.714.714 0 0 0 .714-.714V1.714a.714.714 0 1 0-1.429 0v10.714a.714.714 0 0 0 .715.715z"
            data-name="Path 58" transform="translate(-2 -1)" />
    </g>
</svg>
