<svg height="24" viewBox="0 0 23.567 24" width="23.567" xmlns="http://www.w3.org/2000/svg">
    <g data-name="Group 37">
        <g data-name="Group 36">
            <path style="fill:#fff"
                d="M15.2 0c-.006.006-.019.006-.039.006a11.774 11.774 0 0 0-9.229 19.111L4.215 23.1a.64.64 0 0 0 .334.842.654.654 0 0 0 .367.045l6.3-1.106a11.345 11.345 0 0 0 3.922.682A11.784 11.784 0 0 0 15.2 0zm-.06 22.287a10.322 10.322 0 0 1-3.633-.662.617.617 0 0 0-.341-.032l-5.3.926 1.4-3.26a.647.647 0 0 0-.1-.675 10.28 10.28 0 0 1-1.788-2.971 10.5 10.5 0 1 1 20.275-3.884v.039A10.527 10.527 0 0 1 15.14 22.287z"
                data-name="Path 11" transform="translate(-3.366)" />
        </g>
    </g>
    <g data-name="Group 39">
        <g data-name="Group 38">
            <path style="fill:#fff"
                d="M118.781 146.7h-3.472a.643.643 0 0 0 0 1.286h3.472a.643.643 0 0 0 0-1.286z"
                data-name="Path 12" transform="translate(-107.509 -137.267)" />
        </g>
    </g>
    <g data-name="Group 41">
        <g data-name="Group 40">
            <path style="fill:#fff"
                d="M123.283 196.7h-7.974a.643.643 0 1 0 0 1.286h7.974a.643.643 0 1 0 0-1.286z"
                data-name="Path 13" transform="translate(-107.509 -184.052)" />
        </g>
    </g>
</svg>
