<svg data-name="chat (1)" height="24" viewBox="0 0 23.567 24" width="23.567"
    xmlns="http://www.w3.org/2000/svg">
    <g data-name="Group 42">
        <path style="fill:#f0a04b"
            d="M15.2 0h-.039a11.774 11.774 0 0 0-9.229 19.111L4.215 23.1a.64.64 0 0 0 .334.842.654.654 0 0 0 .367.045l6.3-1.106a11.345 11.345 0 0 0 3.922.682A11.784 11.784 0 0 0 15.2 0zm-4.034 9.427h3.472a.643.643 0 1 1 0 1.286h-3.472a.643.643 0 0 1 0-1.286zm7.974 4.5h-7.974a.643.643 0 0 1 0-1.286h7.974a.643.643 0 1 1 0 1.286z"
            data-name="Path 14" transform="translate(-3.366)" />
    </g>
</svg>
