<svg height="234.492" viewBox="0 0 328 234.492" width="328" xmlns="http://www.w3.org/2000/svg">
    <g data-name="5865574" id="_5865574" transform="translate(54.322 -15.282)">
        <g id="Icon" transform="translate(145.438 19.524)">
            <g data-name="Group 18067" id="Group_18067" transform="translate(0)">
                <circle cx="18.855" cy="18.855" data-name="Ellipse 566" fill="#fff" id="Ellipse_566"
                    r="18.855" stroke="#34c759" stroke-linecap="round" stroke-linejoin="round"
                    stroke-miterlimit="10" stroke-width="6"
                    transform="translate(0 26.664) rotate(-45)" />
                <g data-name="Group 18066" id="Group_18066" transform="translate(12.828 16.028)">
                    <path
                        d="M357.473,56.713a15.69,15.69,0,0,0-8.051,2.191,23.156,23.156,0,0,0-2.854,2.14,1.919,1.919,0,0,1-1.784.408,1.623,1.623,0,0,1-.917-2.4,5.456,5.456,0,0,1,.713-.815,19.276,19.276,0,0,1,25.836.051,2.088,2.088,0,0,1,.866,1.427,1.667,1.667,0,0,1-2.65,1.529c-.357-.255-.611-.51-.968-.764a16.06,16.06,0,0,0-9.784-3.72A.876.876,0,0,0,357.473,56.713Z"
                        data-name="Path 14911" fill="#263238" id="Path_14911"
                        transform="translate(-343.626 -53.297)" />
                    <path
                        d="M369.492,71.2a1.942,1.942,0,0,1-1.325-.561,10.207,10.207,0,0,0-5.249-2.7,10.053,10.053,0,0,0-8.408,2.191,10.675,10.675,0,0,1-.866.713,1.668,1.668,0,0,1-2.191-2.5,12.549,12.549,0,0,1,4.841-3.108,13.12,13.12,0,0,1,10.548.459,12.952,12.952,0,0,1,3.771,2.65,1.635,1.635,0,0,1,.357,1.885A1.443,1.443,0,0,1,369.492,71.2Z"
                        data-name="Path 14912" fill="#263238" id="Path_14912"
                        transform="translate(-347.236 -58.719)" />
                    <path
                        d="M364.7,75.6a7.981,7.981,0,0,1,5.86,2.548,1.664,1.664,0,0,1,.051,2.293,1.729,1.729,0,0,1-2.344.153,9.428,9.428,0,0,0-1.885-1.274,4.3,4.3,0,0,0-4.79.968,1.9,1.9,0,0,1-1.733.662,1.642,1.642,0,0,1-1.019-2.65,6.821,6.821,0,0,1,2.854-2.089A7.376,7.376,0,0,1,364.7,75.6Z"
                        data-name="Path 14913" fill="#263238" id="Path_14913"
                        transform="translate(-350.906 -64.235)" />
                    <path
                        d="M368.838,91.177a1.982,1.982,0,0,1-2.038-2.038,2.069,2.069,0,0,1,1.987-2.038,2.039,2.039,0,0,1,.051,4.077Z"
                        data-name="Path 14914" fill="#263238" id="Path_14914"
                        transform="translate(-354.991 -69.875)" />
                </g>
                <line data-name="Line 177" fill="none" id="Line_177" stroke="#34c759"
                    stroke-linecap="round" stroke-linejoin="round" stroke-miterlimit="10"
                    stroke-width="6" transform="translate(10.828 15.367)" x2="30.575" y1="20.893" />
            </g>
        </g>
        <g id="Plants" transform="translate(19.724 181.05)">
            <g data-name="Group 18068" id="Group_18068">
                <path
                    d="M102.649,371.136c1.733.612,5.911.255,5.911.255.051,0-1.07-2.65-1.172-2.854-1.019-1.835-4.128-4.841-6.472-4.382a2.844,2.844,0,0,0-2.038,3.669C99.388,369.454,101.172,370.576,102.649,371.136Z"
                    data-name="Path 14915" fill="#34c759" id="Path_14915" opacity="0.5"
                    transform="translate(-98.752 -351.221)" />
                <path
                    d="M106.1,370.71c1.784.153,5.453-1.172,5.707-1.274a52.814,52.814,0,0,0,2.65,6.115c.612,1.172,1.223,2.293,1.885,3.414-.357-.459-.713-.917-.764-.968-1.478-1.529-5.249-3.567-7.389-2.5a2.794,2.794,0,0,0-.968,4.077c.917,1.427,2.9,2.038,4.484,2.14,1.631.153,4.739-.917,5.554-1.223.255.459.51.866.764,1.325,1.223,2.089,2.446,4.128,3.567,6.217.408.713.764,1.478,1.121,2.191-.306-.408-.612-.764-.662-.815-1.478-1.529-5.249-3.567-7.389-2.5a2.794,2.794,0,0,0-.968,4.077c.917,1.427,2.9,2.038,4.484,2.14a18,18,0,0,0,5.4-1.172c.357.764.713,1.529,1.019,2.293l.612,1.529c.2.51.357,1.019.561,1.529.306,1.019.612,2.038.917,3.007.2.662.357,1.325.561,1.987-.408-.713-1.172-2.14-1.274-2.242-1.223-1.733-4.688-4.331-6.93-3.567a2.81,2.81,0,0,0-1.58,3.873c.662,1.529,2.548,2.446,4.077,2.8,1.682.408,5.351-.306,5.809-.408.306,1.07.561,2.14.815,3.159a8.872,8.872,0,0,1,.255,1.121H129.9c-.1-.459-.255-.968-.357-1.478-.306-1.121-.611-2.293-.968-3.516.255-.153,1.784-.866,3.159-1.733a21.251,21.251,0,0,0,4.943,2.752q-.535,1.605-1.07,3.058c-.1.306-.2.561-.306.866h1.529c.051-.153.1-.255.153-.408.357-1.07.764-2.242,1.121-3.465.459.051,4.179.561,5.86.1,1.529-.459,3.363-1.427,3.924-3.007a2.819,2.819,0,0,0-1.784-3.771c-2.293-.612-5.554,2.191-6.727,3.975-.051.1-.662,1.325-1.07,2.089.153-.51.306-.968.459-1.478.306-1.019.561-2.038.866-3.108.1-.51.255-1.07.357-1.58a16.452,16.452,0,0,0,.306-1.682c.2-1.325.408-2.65.51-3.975.866.255,4.026,1.121,5.605.917s3.516-.917,4.331-2.4a2.83,2.83,0,0,0-1.223-4.026c-2.191-.968-5.86,1.274-7.236,2.9-.1.1-.968,1.376-1.427,2.038.051-.815.153-1.631.2-2.446.153-2.4.2-4.79.306-7.185,0-.713.051-1.478.1-2.191.306.1,4.026,1.223,5.809.968,1.58-.2,3.516-.917,4.331-2.4a2.83,2.83,0,0,0-1.223-4.026c-2.191-.968-5.86,1.274-7.236,2.9-.1.1-1.376,1.936-1.682,2.4.051-1.631.153-3.21.306-4.79a50.387,50.387,0,0,1,.968-6.37c.153.051,4.026,1.223,5.809.968,1.58-.2,3.516-.917,4.331-2.4a2.83,2.83,0,0,0-1.223-4.026c-2.191-.968-5.86,1.274-7.236,2.9-.1.1-1.478,2.089-1.682,2.446a.867.867,0,0,0,.051-.357,35.914,35.914,0,0,1,2.089-6.115c.459-1.07.968-2.089,1.529-3.108.713.306,3.873,1.58,5.554,1.58,1.58-.051,3.618-.51,4.586-1.885a2.827,2.827,0,0,0-.764-4.128c-2.089-1.172-5.962.662-7.542,2.089-.1.1-.866.968-1.427,1.631.255-.459.459-.917.713-1.325.917-1.58,1.835-2.956,2.65-4.128.459-.662.917-1.274,1.325-1.885a19,19,0,0,0,5.605-1.172c1.376-.764,2.956-2.14,3.21-3.771a2.8,2.8,0,0,0-2.6-3.312c-2.4-.1-4.994,3.312-5.707,5.3-.051.153-.764,3.007-.713,2.956h.051c-.408.561-.866,1.121-1.325,1.784-.866,1.172-1.784,2.548-2.752,4.077a53.127,53.127,0,0,0-2.8,5.147,36.1,36.1,0,0,0-2.242,6.115v.1c-.051-.713-.2-2.65-.2-2.8-.408-2.089-2.446-5.86-4.79-6.166a2.81,2.81,0,0,0-3.058,2.854c-.051,1.682,1.274,3.261,2.548,4.28,1.427,1.121,5.2,2.038,5.5,2.089a53.569,53.569,0,0,0-1.172,6.574c-.153,1.274-.255,2.6-.357,3.873-.051-.612-.1-1.121-.1-1.223-.408-2.089-2.446-5.86-4.79-6.166a2.81,2.81,0,0,0-3.058,2.854c-.051,1.682,1.274,3.261,2.548,4.281s4.484,1.835,5.3,2.038c-.051.51-.051,1.019-.1,1.478-.153,2.4-.255,4.79-.459,7.134-.051.815-.153,1.631-.255,2.446-.051-.51-.1-.968-.1-1.07-.408-2.089-2.446-5.86-4.79-6.166a2.81,2.81,0,0,0-3.057,2.854c-.051,1.682,1.274,3.261,2.548,4.281,1.223.968,4.179,1.733,5.147,2.038-.1.815-.255,1.682-.408,2.446-.1.561-.2,1.07-.357,1.631s-.255,1.07-.408,1.58c-.306,1.019-.611,2.038-.917,3.007-.2.662-.408,1.325-.662,1.987.051-.815.2-2.446.2-2.6a10.952,10.952,0,0,0-1.784-5.2,2.559,2.559,0,0,0-.1-.612,2.861,2.861,0,0,0-3.618-2.191c-2.242.764-3.465,4.892-3.414,7.032,0,.1.153,1.478.306,2.344-.153-.51-.306-.968-.459-1.478-.306-1.019-.662-1.987-1.019-3.057-.2-.51-.408-1.019-.561-1.529-.2-.51-.459-1.019-.662-1.58a39.572,39.572,0,0,0-1.784-3.618c.866-.255,3.975-1.274,5.2-2.344,1.172-1.07,2.446-2.7,2.293-4.382a2.846,2.846,0,0,0-3.21-2.7c-2.344.408-4.179,4.281-4.433,6.421,0,.153-.051,1.682-.051,2.5-.408-.713-.764-1.427-1.172-2.14-1.172-2.038-2.446-4.128-3.72-6.166-.408-.612-.764-1.274-1.121-1.885.306-.1,4.026-1.223,5.351-2.4,1.172-1.07,2.446-2.7,2.293-4.382a2.846,2.846,0,0,0-3.21-2.7c-2.344.408-4.179,4.281-4.433,6.421,0,.153-.1,2.344-.051,2.956-.815-1.376-1.682-2.752-2.4-4.179a54.96,54.96,0,0,1-2.7-5.86c.153-.051,4.026-1.172,5.4-2.4,1.172-1.07,2.446-2.7,2.293-4.382a2.846,2.846,0,0,0-3.21-2.7c-2.344.408-4.179,4.28-4.433,6.421,0,.153-.1,2.548-.051,2.956-.051-.1-.1-.255-.153-.357a36.69,36.69,0,0,1-1.631-6.268c-.2-1.172-.357-2.293-.459-3.414.764-.153,4.128-.815,5.5-1.784,1.325-.917,2.7-2.446,2.8-4.128a2.809,2.809,0,0,0-2.9-3.007c-2.4.153-4.586,3.822-5.147,5.86-.051.1-.2,1.274-.306,2.14-.051-.51-.1-1.019-.1-1.478-.1-1.784-.1-3.465-.1-4.892,0-.815.051-1.58.1-2.293.662-.51,3.261-2.65,4.026-4.077.713-1.427,1.274-3.414.561-4.943a2.8,2.8,0,0,0-3.975-1.325c-2.038,1.223-2.344,5.5-1.835,7.593.051.2,1.019,2.9,1.07,2.854a.05.05,0,0,0,.051-.051c-.051.662-.1,1.427-.153,2.191-.051,1.478-.1,3.108,0,4.943a48.936,48.936,0,0,0,.51,5.809,38.15,38.15,0,0,0,1.478,6.37.05.05,0,0,0,.051.051c-.408-.561-1.631-2.089-1.733-2.191-1.478-1.529-5.249-3.567-7.389-2.5a2.794,2.794,0,0,0-.968,4.077C102.532,370,104.519,370.557,106.1,370.71Z"
                    data-name="Path 14916" fill="#34c759" id="Path_14916" opacity="0.5"
                    transform="translate(-100.011 -338.82)" />
                <path
                    d="M183.389,364.345c.051,0,.561-2.8.612-3.007.153-2.14-.764-6.319-3.007-7.236a2.809,2.809,0,0,0-3.72,1.936,5.875,5.875,0,0,0,1.325,4.79C179.669,362.307,183.338,364.345,183.389,364.345Z"
                    data-name="Path 14917" fill="#34c759" id="Path_14917" opacity="0.5"
                    transform="translate(-137.196 -346.214)" />
            </g>
            <g data-name="Group 18070" id="Group_18070" opacity="0.5"
                transform="translate(169.29 29.526)">
                <path
                    d="M406.173,415.238a11.58,11.58,0,0,0,3.363.153s-.612-1.529-.662-1.58c-.612-1.07-2.344-2.752-3.669-2.446a1.617,1.617,0,0,0-1.172,2.089A3.56,3.56,0,0,0,406.173,415.238Z"
                    data-name="Path 14921" fill="#34c759" id="Path_14921"
                    transform="translate(-403.964 -403.905)" />
                <path
                    d="M408.23,414.922a11.208,11.208,0,0,0,3.261-.713,25.664,25.664,0,0,0,1.529,3.465c.357.662.713,1.325,1.07,1.936a3.234,3.234,0,0,1-.408-.561c-.866-.866-2.956-2.038-4.179-1.427a1.582,1.582,0,0,0-.561,2.293,3.4,3.4,0,0,0,2.548,1.223,9.989,9.989,0,0,0,3.159-.713c.153.255.306.51.408.713.713,1.172,1.376,2.344,2.038,3.516.2.408.459.815.662,1.223-.2-.255-.357-.459-.357-.459-.866-.866-2.956-2.038-4.179-1.427a1.582,1.582,0,0,0-.561,2.293,3.4,3.4,0,0,0,2.548,1.223,10.422,10.422,0,0,0,3.058-.662,13.861,13.861,0,0,1,.561,1.274c.1.306.255.561.357.866s.2.612.306.866c.153.561.357,1.172.51,1.682.1.408.2.764.306,1.121-.2-.408-.662-1.223-.713-1.274-.713-.968-2.65-2.446-3.924-2.038a1.612,1.612,0,0,0-.917,2.191,3.359,3.359,0,0,0,2.293,1.58,12.065,12.065,0,0,0,3.312-.2c.153.612.306,1.223.459,1.784l.153.611h.815c-.051-.255-.153-.561-.2-.815-.153-.612-.357-1.274-.561-1.987a19.147,19.147,0,0,0,1.784-.968,10.981,10.981,0,0,0,2.8,1.58c-.2.612-.408,1.172-.612,1.733l-.153.459h.866c0-.051.051-.153.051-.2.2-.611.408-1.274.612-1.936a11.317,11.317,0,0,0,3.312.051,3.359,3.359,0,0,0,2.242-1.733,1.626,1.626,0,0,0-1.019-2.14c-1.325-.357-3.159,1.223-3.822,2.242-.051.051-.408.764-.612,1.172.1-.255.153-.561.255-.815.153-.561.306-1.121.459-1.733.051-.306.153-.611.2-.917a8.286,8.286,0,0,1,.2-.968c.1-.764.2-1.478.306-2.242a9.539,9.539,0,0,0,3.159.51,3.294,3.294,0,0,0,2.446-1.325,1.63,1.63,0,0,0-.662-2.293c-1.223-.561-3.312.713-4.128,1.631-.051.051-.561.764-.815,1.172a12.493,12.493,0,0,0,.1-1.376c.1-1.325.1-2.7.153-4.077,0-.408.051-.815.051-1.223a12.308,12.308,0,0,0,3.261.561,3.294,3.294,0,0,0,2.446-1.325,1.63,1.63,0,0,0-.662-2.293c-1.223-.561-3.312.713-4.128,1.631-.051.051-.764,1.07-.968,1.376.051-.917.1-1.835.153-2.7a28.16,28.16,0,0,1,.561-3.618,11.592,11.592,0,0,0,3.312.561,3.294,3.294,0,0,0,2.446-1.325,1.63,1.63,0,0,0-.662-2.293c-1.223-.561-3.312.713-4.128,1.631-.051.051-.815,1.172-.968,1.376a.306.306,0,0,1,.051-.2,23.047,23.047,0,0,1,1.172-3.465,18.307,18.307,0,0,1,.866-1.733,10.313,10.313,0,0,0,3.159.866,3.283,3.283,0,0,0,2.6-1.07,1.611,1.611,0,0,0-.408-2.344c-1.172-.662-3.363.357-4.281,1.172-.051.051-.51.561-.815.917.153-.255.255-.51.408-.764.51-.866,1.019-1.682,1.478-2.344.255-.408.51-.713.764-1.07a10.314,10.314,0,0,0,3.159-.662,3.373,3.373,0,0,0,1.784-2.14,1.616,1.616,0,0,0-1.478-1.885c-1.325-.051-2.8,1.885-3.261,3.007-.051.1-.408,1.682-.408,1.682h.051c-.255.306-.459.612-.764,1.019A26.955,26.955,0,0,0,431.416,406c-.51.866-1.07,1.835-1.58,2.9a18.66,18.66,0,0,0-1.274,3.465v.051c0-.408-.1-1.478-.1-1.58-.255-1.172-1.376-3.312-2.7-3.465a1.578,1.578,0,0,0-1.733,1.631,3.307,3.307,0,0,0,1.427,2.4,12.279,12.279,0,0,0,3.108,1.172,28.3,28.3,0,0,0-.662,3.72c-.1.713-.153,1.478-.2,2.191a5.247,5.247,0,0,1-.051-.662c-.255-1.172-1.376-3.312-2.7-3.465a1.578,1.578,0,0,0-1.733,1.631,3.308,3.308,0,0,0,1.427,2.4,12.04,12.04,0,0,0,3.007,1.172c0,.306-.051.561-.051.866-.051,1.376-.153,2.7-.255,4.026l-.153,1.376a5.365,5.365,0,0,0-.051-.612c-.255-1.172-1.376-3.312-2.7-3.465a1.578,1.578,0,0,0-1.733,1.631,3.307,3.307,0,0,0,1.427,2.4,8.3,8.3,0,0,0,2.9,1.121c-.051.459-.153.917-.2,1.376a5.928,5.928,0,0,1-.2.917,5.924,5.924,0,0,0-.2.917c-.153.561-.357,1.172-.51,1.682-.1.408-.255.764-.357,1.121.051-.459.1-1.376.1-1.478a6.424,6.424,0,0,0-1.019-2.956.867.867,0,0,0-.051-.357,1.6,1.6,0,0,0-2.038-1.223c-1.274.408-1.936,2.752-1.936,3.975,0,.051.1.815.153,1.325-.1-.255-.153-.561-.255-.815-.153-.561-.357-1.121-.561-1.733-.1-.306-.2-.561-.306-.866s-.255-.612-.357-.866c-.306-.662-.662-1.376-1.019-2.038a9.611,9.611,0,0,0,2.9-1.325,3.49,3.49,0,0,0,1.325-2.5,1.613,1.613,0,0,0-1.835-1.529c-1.325.255-2.344,2.446-2.5,3.618,0,.051-.051.968-.051,1.427-.2-.408-.459-.815-.662-1.223-.662-1.172-1.376-2.344-2.089-3.465a12.182,12.182,0,0,0-.662-1.07,11.323,11.323,0,0,0,3.057-1.325,3.49,3.49,0,0,0,1.325-2.5,1.613,1.613,0,0,0-1.835-1.529c-1.325.255-2.344,2.446-2.5,3.618,0,.1-.051,1.325-.051,1.682-.459-.764-.917-1.58-1.376-2.344a21.525,21.525,0,0,1-1.529-3.312,9.572,9.572,0,0,0,3.058-1.376,3.49,3.49,0,0,0,1.325-2.5,1.613,1.613,0,0,0-1.835-1.529c-1.325.255-2.344,2.446-2.5,3.618,0,.1-.051,1.427-.051,1.682a.386.386,0,0,0-.1-.2,18.869,18.869,0,0,1-.917-3.516c-.1-.662-.2-1.325-.255-1.936a10.915,10.915,0,0,0,3.108-1.019,3.457,3.457,0,0,0,1.58-2.344,1.606,1.606,0,0,0-1.631-1.733c-1.325.1-2.6,2.14-2.9,3.312,0,.051-.1.713-.153,1.223,0-.306-.051-.561-.051-.866-.051-1.019-.051-1.936-.051-2.8,0-.459.051-.917.051-1.274a12.094,12.094,0,0,0,2.293-2.293,3.4,3.4,0,0,0,.306-2.8,1.573,1.573,0,0,0-2.242-.764c-1.172.713-1.325,3.108-1.019,4.28a12.113,12.113,0,0,0,.611,1.631h0a9.823,9.823,0,0,0-.051,1.223,25.631,25.631,0,0,0,0,2.8,26.673,26.673,0,0,0,.306,3.312,19.587,19.587,0,0,0,.866,3.618v.051c-.255-.306-.917-1.172-.968-1.274-.866-.866-2.956-2.038-4.179-1.427a1.582,1.582,0,0,0-.561,2.293A2.706,2.706,0,0,0,408.23,414.922Z"
                    data-name="Path 14922" fill="#34c759" id="Path_14922"
                    transform="translate(-404.746 -396.762)" />
                <path
                    d="M451.945,411.454s.306-1.58.357-1.682c.1-1.223-.459-3.567-1.682-4.077a1.574,1.574,0,0,0-2.089,1.121,3.284,3.284,0,0,0,.764,2.7A12.06,12.06,0,0,0,451.945,411.454Z"
                    data-name="Path 14923" fill="#34c759" id="Path_14923"
                    transform="translate(-425.785 -401.09)" />
            </g>
        </g>
        <g id="Earth_Globe" transform="translate(3.391 26.024)">
            <g data-name="Group 18074" id="Group_18074">
                <g data-name="Group 18071" id="Group_18071" transform="translate(21.352 0.021)">
                    <path
                        d="M151.919,107.5l6.828,1.427,2.293,2.4,3.058.459.968,2.854-.713,1.987-2.089.917-5.045-.815-.153-.612,2.4-1.682-1.631-3.058-4.535-.611-2.4-2.038Z"
                        data-name="Path 14924" fill="#34c759" id="Path_14924" stroke="#263238"
                        stroke-linecap="round" stroke-linejoin="round" stroke-miterlimit="10"
                        stroke-width="1" transform="translate(-115.586 -70.372)" />
                    <path
                        d="M172.816,165.133l-5.4-.917-6.523-.815-4.79,1.07-4.688.051-4.688,2.191-2.752.764-1.682.357-2.854,2.6-2.8,1.936-4.739-1.682.1-4.586-2.854-.51-3.108.662-.764-1.274-.306-2.854-1.427-1.325-2.089.815-.255,1.682-2.6.764-2.956-2.293-1.733-3.516,1.376-4.841,4.535-.662,1.478.815,1.835-.408,1.987-1.885,2.14.153,3.873,4.179,1.07-.408-1.121-3.516-1.325-1.631-.357-3.007,5.2-3.771-.51-5.911,2.038-2.548,1.223-4.026,1.478-.662,3.058-3.108-.1-1.274-2.446.713-.764-1.121-1.682.357-2.5,1.223.815-2.293,5.1-2.752.917-1.682,2.9,2.9,1.682,1.07,2.038-1.121-1.376-1.784-3.771-1.58-4.637-3.363-4.433-1.784-3.873.2-2.293-1.427-2.6-.051-.153.662.662,4.535.968,1.427-.306,5.249-3.669-1.784v-2.293l-3.618-.815-1.784-1.376-.1-4.026,3.771-4.23-.51-3.771-1.682.51-1.376-1.172-.968-2.242-1.172.153-.051,2.6-1.631.662-1.987-5.249-1.427-.51-2.4-.459-2.191,1.784,3.771,2.242,1.223,2.5-6.523-2.956-4.79-3.312L97.7,97.257,93.422,96.9l-2.65,2.7a20.034,20.034,0,0,1-2.038,1.733,29.809,29.809,0,0,1-3.567,1.427l-.051,2.752-3.516.968.662,1.631,5.911-.357,3.669,2.6,1.223,5.4-.612,5.2L93.881,126l-2.65,8.561,1.58,11.517,2.854,6.166,3.108,4.484,2.4-.2-1.325-2.293-1.631-1.58-1.529-3.21,1.325-.612,3.414,5.1,2.65,4.586.917,4.026,3.72,2.9,6.115,2.7,8.51.357,3.007,1.784,2.4,2.038,3.159,1.07,3.618.153,3.363-.917s.2,1.58.357,2.344-1.427,3.873-1.427,3.873l-1.019,3.465,1.987,3.108,3.72.612,5.911,3.873,2.4.459.51,2.344.51,1.019a66.738,66.738,0,0,0,29.046-22.473l-.153-1.121,2.5-8.51-2.344-.968Z"
                        data-name="Path 14925" fill="#34c759" id="Path_14925" stroke="#263238"
                        stroke-linecap="round" stroke-linejoin="round" stroke-miterlimit="10"
                        stroke-width="1" transform="translate(-81.6 -65.174)" />
                    <path
                        d="M179.385,69.884l-2.344-2.548-2.9-2.9-1.631-4.484,2.9-.153-.2-1.58-2.038.306,1.529-1.172,1.631-1.478-.357-1.529-2.4-2.089-1.121-3.261a66.725,66.725,0,0,0-80.616-1.529l4.128,1.733-1.529,3.261-2.956,1.223.612,4.23-1.121.764L89.8,60.711l.764,2.752,2.7-.255-.51,2.854,2.65-.561,3.21-6.727-.1-2.6,4.281-1.274.662-2.089,4.382-1.478-.1-2.752,3.21-.866a16.748,16.748,0,0,1,2.5-1.835,19.255,19.255,0,0,1,2.8.2L119,47.411l3.261-.713,2.4-2.344,3.618-.459a4.118,4.118,0,0,0,1.835.255,13.4,13.4,0,0,0,2.854-1.784l5.1,1.784,2.191.968.51,2.344,2.4-.2.459-1.58,2.242.459.1,1.274L141.574,49.7l3.363,2.8,6.268,1.835,3.007,2.6,3.465-.459.408-1.733,1.172-.561L154.568,52l-2.548.255,1.885-1.07L151.46,48.94l2.6-.764L157.88,49.3l1.58,3.567,2.14,1.631,2.4,4.179,3.975,1.733,1.121,5.1,4.077,1.529.2,1.733V70.9l1.529,2.6.612,1.325,2.752-.1.662-2.9Z"
                        data-name="Path 14926" fill="#34c759" id="Path_14926" stroke="#263238"
                        stroke-linecap="round" stroke-linejoin="round" stroke-miterlimit="10"
                        stroke-width="1" transform="translate(-85.621 -34.641)" />
                    <path
                        d="M262.7,72.4l.2.866-.2,2.65.968,2.038,1.835.255.662,2.956-2.038-.357,1.376,8.459-1.121,3.822,2.191,4.077,2.446,1.427,1.834,8.357,3.465,6.064,3.261,4.484,3.771.153.561-3.363.408-.51a76.1,76.1,0,0,0-1.274-8.2A66.8,66.8,0,0,0,262.7,72.4Z"
                        data-name="Path 14927" fill="#34c759" id="Path_14927" stroke="#263238"
                        stroke-linecap="round" stroke-linejoin="round" stroke-miterlimit="10"
                        stroke-width="1" transform="translate(-170.414 -53.159)" />
                    <path
                        d="M171.306,83.891,160.1,81.7l-4.433,1.172-.459,3.159-2.293-1.58-3.21,1.529.815,5.147,3.21,1.427L155.1,89.14l2.854,1.784,5.707,3.159,1.936,4.281,5.147,4.179,6.268-2.5-.662-2.293-1.987-2.344-1.682-6.115.968-2.956Z"
                        data-name="Path 14928" fill="#34c759" id="Path_14928" stroke="#263238"
                        stroke-linecap="round" stroke-linejoin="round" stroke-miterlimit="10"
                        stroke-width="1" transform="translate(-114.997 -57.72)" />
                    <path d="M206.077,89l-2.446-.1L202,91.04l2.089,4.23,1.987-.408Z"
                        data-name="Path 14929" fill="#34c759" id="Path_14929" stroke="#263238"
                        stroke-linecap="round" stroke-linejoin="round" stroke-miterlimit="10"
                        stroke-width="1" transform="translate(-140.646 -61.251)" />
                    <path
                        d="M231.31,85.461l-5.86-1.631L223.972,82.2l-1.172.764,1.784,2.854,1.835,3.822,2.5.408.357-.713L227.335,87.3l4.382.662Z"
                        data-name="Path 14930" fill="#34c759" id="Path_14930" stroke="#263238"
                        stroke-linecap="round" stroke-linejoin="round" stroke-miterlimit="10"
                        stroke-width="1" transform="translate(-150.847 -57.965)" />
                    <path
                        d="M174.759,217.9l-.459.764,4.943.357,2.344,1.784,3.007-.357.713-1.936-3.72.153Z"
                        data-name="Path 14931" fill="#fff" id="Path_14931" stroke="#263238"
                        stroke-linecap="round" stroke-linejoin="round" stroke-miterlimit="10"
                        stroke-width="1" transform="translate(-127.062 -124.514)" />
                    <path d="M200.557,217.7l-3.057,1.631.764,1.172,4.026-.917.51-1.427-1.376.459Z"
                        data-name="Path 14932" fill="#fff" id="Path_14932" stroke="#263238"
                        stroke-linecap="round" stroke-linejoin="round" stroke-miterlimit="10"
                        stroke-width="1" transform="translate(-138.439 -124.416)" />
                </g>
                <g data-name="Group 18072" id="Group_18072">
                    <circle cx="66.756" cy="66.756" data-name="Ellipse 567" fill="none"
                        id="Ellipse_567" r="66.756" stroke="#263238" stroke-linecap="round"
                        stroke-linejoin="round" stroke-miterlimit="10" stroke-width="1" />
                    <ellipse cx="41.837" cy="66.756" data-name="Ellipse 568" fill="none"
                        id="Ellipse_568" rx="41.837" ry="66.756" stroke="#263238"
                        stroke-linecap="round" stroke-linejoin="round" stroke-miterlimit="10"
                        stroke-width="1" transform="translate(24.919)" />
                    <ellipse cx="15.237" cy="66.756" data-name="Ellipse 569" fill="none"
                        id="Ellipse_569" rx="15.237" ry="66.756" stroke="#263238"
                        stroke-linecap="round" stroke-linejoin="round" stroke-miterlimit="10"
                        stroke-width="1" transform="translate(51.519)" />
                    <line data-name="Line 178" fill="none" id="Line_178" stroke="#263238"
                        stroke-linecap="round" stroke-linejoin="round" stroke-miterlimit="10"
                        stroke-width="1" transform="translate(30.116 11.364)" x2="73.584" />
                    <line data-name="Line 179" fill="none" id="Line_179" stroke="#263238"
                        stroke-linecap="round" stroke-linejoin="round" stroke-miterlimit="10"
                        stroke-width="1" transform="translate(5.453 40.461)" x2="122.402" />
                    <line data-name="Line 180" fill="none" id="Line_180" stroke="#263238"
                        stroke-linecap="round" stroke-linejoin="round" stroke-miterlimit="10"
                        stroke-width="1" transform="translate(30.116 122.046)" x2="73.584" />
                    <line data-name="Line 181" fill="none" id="Line_181" stroke="#263238"
                        stroke-linecap="round" stroke-linejoin="round" stroke-miterlimit="10"
                        stroke-width="1" transform="translate(5.453 92.948)" x2="122.402" />
                    <line data-name="Line 182" fill="none" id="Line_182" stroke="#263238"
                        stroke-linecap="round" stroke-linejoin="round" stroke-miterlimit="10"
                        stroke-width="1" transform="translate(0 66.756)" x1="133.511" />
                </g>
                <g data-name="Group 18073" id="Group_18073" transform="translate(53.812 56.513)">
                    <rect data-name="Rectangle 519" fill="#fff" height="21.148" id="Rectangle_519"
                        stroke="#263238" stroke-linecap="round" stroke-linejoin="round"
                        stroke-miterlimit="10" stroke-width="1" width="24.664" />
                    <path
                        d="M166.991,158.158V155.3H165v-2.9h-8.51v2.9h-1.987v2.854H151.5v8.51h18.549v-8.51Z"
                        data-name="Path 14933" fill="#263238" id="Path_14933" stroke="#263238"
                        stroke-linecap="round" stroke-linejoin="round" stroke-miterlimit="10"
                        stroke-width="1" transform="translate(-148.341 -148.884)" />
                </g>
            </g>
        </g>
        <g id="Character" transform="translate(110.811 74.621)">
            <g data-name="Group 18088" id="Group_18088">
                <g data-name="Group 18075" id="Group_18075" transform="translate(41.99 118.292)">
                    <path d="M332.9,418.1v-56l47.289,1.987v53.965" data-name="Path 14934"
                        fill="#34c759" id="Path_14934" stroke="#263238" stroke-linecap="round"
                        stroke-linejoin="round" stroke-miterlimit="10" stroke-width="1"
                        transform="translate(-332.9 -362.1)" />
                    <path d="M367.2,398.8l5.605,2.752v34.907" data-name="Path 14935" fill="none"
                        id="Path_14935" stroke="#263238" stroke-linecap="round"
                        stroke-linejoin="round" stroke-miterlimit="10" stroke-width="1"
                        transform="translate(-349.721 -380.098)" />
                </g>
                <path d="M306.623,308.7l-1.223,6.115,14.574,7.287.459-10.8Z" data-name="Path 14936"
                    fill="#fff" id="Path_14936" stroke="#263238" stroke-linecap="round"
                    stroke-linejoin="round" stroke-miterlimit="10" stroke-width="1"
                    transform="translate(-277.424 -217.62)" />
                <g data-name="Group 18077" id="Group_18077" transform="translate(29.148 46.644)">
                    <g data-name="Group 18076" id="Group_18076">
                        <path
                            d="M333.995,223.844s-16.511,5.5-17.581,5.911-2.242,1.682-2.14,2.752-6.574,32.562-6.574,33.429,11.873,4.23,11.873,4.23.408,24.46.51,25.072.815,3.057,13.2,3.261c10.243.2,24.97.612,28.333.408,6.115-.357,6.37-2.446,6.676-3.057s0-29,0-29l21.454,10.192s.2-.2.1-2.854-7.695-22.422-11.058-31.238-5.1-11.211-9.223-14.268S355.5,221.5,355.5,221.5a94.308,94.308,0,0,1-13.963,1.784A39.684,39.684,0,0,0,333.995,223.844Z"
                            data-name="Path 14937" fill="#fff" id="Path_14937" stroke="#263238"
                            stroke-linecap="round" stroke-linejoin="round" stroke-miterlimit="10"
                            stroke-width="1" transform="translate(-307.7 -221.5)" />
                        <line data-name="Line 183" fill="none" id="Line_183" stroke="#263238"
                            stroke-linecap="round" stroke-linejoin="round" stroke-miterlimit="10"
                            stroke-width="1" transform="translate(12.536 22.065)" x2="0.051"
                            y1="1.733" />
                        <line data-name="Line 184" fill="none" id="Line_184" stroke="#263238"
                            stroke-linecap="round" stroke-linejoin="round" stroke-miterlimit="10"
                            stroke-width="1" transform="translate(11.873 25.53)" x2="0.612"
                            y1="23.135" />
                    </g>
                    <path
                        d="M444.437,295.472a16.1,16.1,0,0,0-15.237,8.1l20.18,9.733s.2-.2.1-2.854C449.431,309.129,446.424,301.129,444.437,295.472Z"
                        data-name="Path 14938" fill="#fff" id="Path_14938" stroke="#263238"
                        stroke-linecap="round" stroke-linejoin="round" stroke-miterlimit="10"
                        stroke-width="1" transform="translate(-367.285 -257.763)" />
                </g>
                <g data-name="Group 18080" id="Group_18080" transform="translate(45.035)">
                    <path
                        d="M375.606,222.556s3.261,10.243,4.535,10.7c1.274.408,1.07-2.752,1.07-2.752s8.561-13.351,8.255-14.727a5.8,5.8,0,0,0-2.446-3.72c-1.58-1.172-2.344-1.478-2.854-1.376s-8.867,10.5-8.867,10.5Z"
                        data-name="Path 14939" fill="#fff" id="Path_14939" stroke="#263238"
                        stroke-linecap="round" stroke-linejoin="round" stroke-miterlimit="10"
                        stroke-width="1" transform="translate(-356.739 -169.542)" />
                    <path
                        d="M348.2,226.853s-.611,7.593-.866,8.765c-.2,1.172-1.172,2.956-.408,3.261s4.128-2.446,4.841-3.618c.764-1.172.51-1.58.764-2.65C352.731,231.592,349.673,226.242,348.2,226.853Z"
                        data-name="Path 14940" fill="#fff" id="Path_14940" stroke="#263238"
                        stroke-linecap="round" stroke-linejoin="round" stroke-miterlimit="10"
                        stroke-width="1" transform="translate(-342.679 -177.457)" />
                    <path
                        d="M354.624,217.6s-5.2,3.924-4.841,4.739c.306.866,7.848,13.2,7.848,13.2s-.408-11.211-.764-14.574S354.624,217.6,354.624,217.6Z"
                        data-name="Path 14941" fill="#fff" id="Path_14941" stroke="#263238"
                        stroke-linecap="round" stroke-linejoin="round" stroke-miterlimit="10"
                        stroke-width="1" transform="translate(-344.216 -172.943)" />
                    <g data-name="Group 18078" id="Group_18078" transform="translate(8.828 37.472)">
                        <path
                            d="M356.2,206.1l4.535,22.524a46.978,46.978,0,0,1,2.344-4.128c.357-.306,4.433-7.593,4.433-7.593s7.95-5.605,7.95-6.217.408-7.185.408-7.185-6.879,4.535-8.969,5.1C364.761,209.105,356.2,206.1,356.2,206.1Z"
                            data-name="Path 14942" fill="#fff" id="Path_14942" stroke="#263238"
                            stroke-linecap="round" stroke-linejoin="round" stroke-miterlimit="10"
                            stroke-width="1" transform="translate(-356.2 -203.5)" />
                        <path
                            d="M356.2,208.6l1.936,9.478,9.02-4.994L366.9,211C364.761,211.607,356.2,208.6,356.2,208.6Z"
                            data-name="Path 14943" fill="#263238" id="Path_14943" stroke="#263238"
                            stroke-linecap="round" stroke-linejoin="round" stroke-miterlimit="10"
                            stroke-width="1" transform="translate(-356.2 -206.001)" />
                    </g>
                    <g data-name="Group 18079" id="Group_18079" transform="translate(2.602 8.847)">
                        <path
                            d="M346.08,170.674s-1.274-1.885-1.987.764c-.764,2.65,2.65,7.083,2.65,7.083l.408-7.746Z"
                            data-name="Path 14944" fill="#fff" id="Path_14944" stroke="#263238"
                            stroke-linecap="round" stroke-linejoin="round" stroke-miterlimit="10"
                            stroke-width="1" transform="translate(-343.981 -158.458)" />
                        <path
                            d="M349.5,151.594s0,19.262.306,21.046,4.841,11.007,6.981,11.619a16.232,16.232,0,0,0,6.574.2c1.07-.306,8.357-6.115,9.223-8.561a55.807,55.807,0,0,0,1.58-5.809s3.159-1.682,3.924-4.128.408-4.637-.306-5.5a2.773,2.773,0,0,0-1.274-.968l-1.172-1.682s.306-2.752.306-3.363a7.235,7.235,0,0,0-4.739-5.911c-4.128-1.682-16.1-1.274-18.6-.764C349.7,148.332,349.5,151.594,349.5,151.594Z"
                            data-name="Path 14945" fill="#fff" id="Path_14945" stroke="#263238"
                            stroke-linecap="round" stroke-linejoin="round" stroke-miterlimit="10"
                            stroke-width="1" transform="translate(-346.688 -147.327)" />
                        <path
                            d="M361.736,174.777c0,.866-.408,1.58-.968,1.58-.51,0-.968-.713-.968-1.58s.408-1.58.968-1.58C361.329,173.147,361.736,173.86,361.736,174.777Z"
                            data-name="Path 14946" fill="#263238" id="Path_14946"
                            transform="translate(-351.739 -160.013)" />
                        <path
                            d="M382.936,176.58c0,.866-.408,1.58-.968,1.58-.51,0-.968-.713-.968-1.58s.408-1.58.968-1.58S382.936,175.713,382.936,176.58Z"
                            data-name="Path 14947" fill="#263238" id="Path_14947"
                            transform="translate(-362.136 -160.898)" />
                        <path d="M356.6,167.655a3.3,3.3,0,0,1,4.535-.1" data-name="Path 14948"
                            fill="none" id="Path_14948" stroke="#263238" stroke-linecap="round"
                            stroke-linejoin="round" stroke-miterlimit="10" stroke-width="1"
                            transform="translate(-350.17 -156.814)" />
                        <path d="M378.6,168.55a3.614,3.614,0,0,1,4.739,1.07" data-name="Path 14949"
                            fill="none" id="Path_14949" stroke="#263238" stroke-linecap="round"
                            stroke-linejoin="round" stroke-miterlimit="10" stroke-width="1"
                            transform="translate(-360.959 -157.506)" />
                        <path d="M368.015,173.1l-.815,11.364,4.739.2" data-name="Path 14950"
                            fill="none" id="Path_14950" stroke="#263238" stroke-linecap="round"
                            stroke-linejoin="round" stroke-miterlimit="10" stroke-width="1"
                            transform="translate(-355.368 -159.966)" />
                        <line data-name="Line 185" fill="none" id="Line_185" stroke="#263238"
                            stroke-linecap="round" stroke-linejoin="round" stroke-miterlimit="10"
                            stroke-width="1" transform="translate(12.342 29.339)" x2="2.089"
                            y2="0.204" />
                    </g>
                    <path
                        d="M345.349,152.321s-1.274,4.026-.764,5.1,1.478,3.516,1.478,3.516a23.949,23.949,0,0,0,.612,3.72l.306-10.7C347.03,153.9,346.724,151.149,345.349,152.321Z"
                        data-name="Path 14951" fill="#263238" id="Path_14951" stroke="#263238"
                        stroke-linecap="round" stroke-linejoin="round" stroke-miterlimit="10"
                        stroke-width="1" transform="translate(-341.616 -140.787)" />
                    <path
                        d="M348.111,132.48s-9.631,3.924-9.223,6.472,3.72,2.548,3.72,2.548-2.548,2.752,2.65,3.72,14.931-3.516,14.931-3.516-1.376,3.058,0,3.363a18.464,18.464,0,0,0,4.433-.1s.1,3.058,1.274,3.822a6.809,6.809,0,0,0,2.854.866s-.612,5.911-.1,6.217.612-.2.764-.51c.1-.306.866-3.822.866-3.822l1.07-.51.306-2.752s2.752-4.331,1.885-6.879a18.522,18.522,0,0,0-3.618-5.4,16.48,16.48,0,0,0-11.007-5.911C351.678,129.321,348.111,132.48,348.111,132.48Z"
                        data-name="Path 14952" fill="#263238" id="Path_14952" stroke="#263238"
                        stroke-linecap="round" stroke-linejoin="round" stroke-miterlimit="10"
                        stroke-width="1" transform="translate(-338.875 -129.966)" />
                </g>
                <path
                    d="M305.031,300.538s.357,1.121-.051,5.453-.459,9.478,1.478,12.332,7.389,4.331,9.274,3.516,2.4-2.191,2.446-5.656-4.688-16.612-4.688-16.612l-8.357-1.07Z"
                    data-name="Path 14953" fill="#fff" id="Path_14953" stroke="#263238"
                    stroke-linecap="round" stroke-linejoin="round" stroke-miterlimit="10"
                    stroke-width="1" transform="translate(-277.106 -212.618)" />
                <path
                    d="M297.375,281.453a11.534,11.534,0,0,1-3.567-2.4c-1.172-1.376-2.65-3.567-3.058-3.669a2.362,2.362,0,0,0-1.682,3.007c.713,1.784,3.363,3.924,3.363,3.924s1.478,2.293,1.733,2.9a14.422,14.422,0,0,0,1.733,3.618c2.038,2.242,3.465,2.8,6.523,2.854s3.516-1.172,3.873-2.446.51-3.516.306-3.567-8.357-1.733-8.714-2.6A4.02,4.02,0,0,1,297.375,281.453Z"
                    data-name="Path 14954" fill="#fff" id="Path_14954" stroke="#263238"
                    stroke-linecap="round" stroke-linejoin="round" stroke-miterlimit="10"
                    stroke-width="1" transform="translate(-269.347 -201.278)" />
                <g data-name="Group 18086" id="Group_18086" transform="translate(0 46.135)">
                    <path
                        d="M267.2,291.893V276.707a20.269,20.269,0,0,1,20.281-20.281h0a20.269,20.269,0,0,1,20.281,20.281v42.346A15.833,15.833,0,0,0,323.611,334.9h0a15.833,15.833,0,0,0,15.848-15.848V220.5"
                        data-name="Path 14955" fill="none" id="Path_14955" stroke="#263238"
                        stroke-linecap="round" stroke-linejoin="round" stroke-miterlimit="10"
                        stroke-width="12" transform="translate(-258.69 -220.5)" />
                    <g data-name="Group 18085" id="Group_18085" transform="translate(0 68.182)">
                        <g data-name="Group 18081" id="Group_18081" transform="translate(3.618)">
                            <rect data-name="Rectangle 520" fill="#34c759" height="10.803"
                                id="Rectangle_520" stroke="#263238" stroke-linecap="round"
                                stroke-linejoin="round" stroke-miterlimit="10" stroke-width="1"
                                width="10.09" />
                            <rect data-name="Rectangle 521" fill="#34c759" height="10.803"
                                id="Rectangle_521" stroke="#263238" stroke-linecap="round"
                                stroke-linejoin="round" stroke-miterlimit="10" stroke-width="1"
                                transform="translate(8.306)" width="1.784" />
                            <line data-name="Line 186" fill="none" id="Line_186" stroke="#263238"
                                stroke-linecap="round" stroke-linejoin="round"
                                stroke-miterlimit="10" stroke-width="1"
                                transform="translate(0.357 2.752)" x2="9.631" />
                            <line data-name="Line 187" fill="none" id="Line_187" stroke="#263238"
                                stroke-linecap="round" stroke-linejoin="round"
                                stroke-miterlimit="10" stroke-width="1"
                                transform="translate(0.357 4.79)" x2="9.631" />
                            <line data-name="Line 188" fill="none" id="Line_188" stroke="#263238"
                                stroke-linecap="round" stroke-linejoin="round"
                                stroke-miterlimit="10" stroke-width="1"
                                transform="translate(0.357 6.777)" x2="9.631" />
                            <line data-name="Line 189" fill="none" id="Line_189" stroke="#263238"
                                stroke-linecap="round" stroke-linejoin="round"
                                stroke-miterlimit="10" stroke-width="1"
                                transform="translate(0.357 8.816)" x2="9.631" />
                        </g>
                        <g data-name="Group 18084" id="Group_18084" transform="translate(0 9.886)">
                            <rect data-name="Rectangle 522" fill="#263238" height="21.301"
                                id="Rectangle_522" stroke="#263238" stroke-linecap="round"
                                stroke-linejoin="round" stroke-miterlimit="10" stroke-width="1"
                                transform="translate(7.95 2.905)" width="5.86" />
                            <g data-name="Group 18083" id="Group_18083"
                                transform="translate(1.885 21.555)">
                                <rect data-name="Rectangle 523" fill="#fff" height="12.689"
                                    id="Rectangle_523" stroke="#263238" stroke-linecap="round"
                                    stroke-linejoin="round" stroke-miterlimit="10" stroke-width="1"
                                    width="11.058" />
                                <g data-name="Group 18082" id="Group_18082"
                                    transform="translate(1.784 4.637)">
                                    <rect data-name="Rectangle 524" fill="#ccc" height="8.051"
                                        id="Rectangle_524" stroke="#263238" stroke-linecap="round"
                                        stroke-linejoin="round" stroke-miterlimit="10"
                                        stroke-width="1" width="0.917" />
                                    <rect data-name="Rectangle 525" fill="#ccc" height="8.051"
                                        id="Rectangle_525" stroke="#263238" stroke-linecap="round"
                                        stroke-linejoin="round" stroke-miterlimit="10"
                                        stroke-width="1" transform="translate(1.834)"
                                        width="0.917" />
                                    <rect data-name="Rectangle 526" fill="#ccc" height="8.051"
                                        id="Rectangle_526" stroke="#263238" stroke-linecap="round"
                                        stroke-linejoin="round" stroke-miterlimit="10"
                                        stroke-width="1" transform="translate(3.618)"
                                        width="0.917" />
                                </g>
                                <rect data-name="Rectangle 527" fill="#fff" height="12.689"
                                    id="Rectangle_527" stroke="#263238" stroke-linecap="round"
                                    stroke-linejoin="round" stroke-miterlimit="10" stroke-width="1"
                                    transform="translate(8.459)" width="2.599" />
                            </g>
                            <path d="M265.3,398.16h1.682l1.478-20.485h2.14v30.218h2.9V373.7h-7.338Z"
                                data-name="Path 14956" fill="#34c759" id="Path_14956"
                                stroke="#263238" stroke-linecap="round" stroke-linejoin="round"
                                stroke-miterlimit="10" stroke-width="1"
                                transform="translate(-257.758 -373.7)" />
                            <path d="M258.042,398.16h-6.727L250.5,373.7h8.408Z"
                                data-name="Path 14957" fill="#263238" id="Path_14957"
                                stroke="#263238" stroke-linecap="round" stroke-linejoin="round"
                                stroke-miterlimit="10" stroke-width="1"
                                transform="translate(-250.5 -373.7)" />
                        </g>
                    </g>
                </g>
                <g data-name="Group 18087" id="Group_18087" transform="translate(25.735 80.454)">
                    <path
                        d="M319.268,289.538s1.784-.357,2.14.612a10.363,10.363,0,0,1-.306,4.484,1.7,1.7,0,0,1-1.682,1.274,2.95,2.95,0,0,1-1.121-.611,11.07,11.07,0,0,0,.662-3.414A8.064,8.064,0,0,1,319.268,289.538Z"
                        data-name="Path 14958" fill="#fff" id="Path_14958" stroke="#263238"
                        stroke-linecap="round" stroke-linejoin="round" stroke-miterlimit="10"
                        stroke-width="1" transform="translate(-309.485 -288.645)" />
                    <path
                        d="M313.576,289.176a4.395,4.395,0,0,1,2.191.306c.764.459.357,2.8.2,4.331s-.917,2.191-1.733,2.14-1.987-.713-1.987-1.121a2.8,2.8,0,0,0-.051-.612s.306-.255.561-1.682S313.576,289.176,313.576,289.176Z"
                        data-name="Path 14959" fill="#fff" id="Path_14959" stroke="#263238"
                        stroke-linecap="round" stroke-linejoin="round" stroke-miterlimit="10"
                        stroke-width="1" transform="translate(-306.494 -288.487)" />
                    <path
                        d="M307.822,289.628a2.82,2.82,0,0,1,2.14-.1c.968.408.611,1.121.408,3.465s-1.019,3.159-1.987,2.956c-.662-.153-1.682-.408-1.784-1.325A32.429,32.429,0,0,1,307.822,289.628Z"
                        data-name="Path 14960" fill="#fff" id="Path_14960" stroke="#263238"
                        stroke-linecap="round" stroke-linejoin="round" stroke-miterlimit="10"
                        stroke-width="1" transform="translate(-303.746 -288.582)" />
                    <path
                        d="M304.211,290.983a4.451,4.451,0,0,0,0-2.293c-.357-.968-2.344-1.121-2.65-.357s-.764,4.586-.459,4.994a1.962,1.962,0,0,0,2.14.459C303.753,293.378,304.211,290.983,304.211,290.983Z"
                        data-name="Path 14961" fill="#fff" id="Path_14961" stroke="#263238"
                        stroke-linecap="round" stroke-linejoin="round" stroke-miterlimit="10"
                        stroke-width="1" transform="translate(-301.002 -287.848)" />
                </g>
                <path
                    d="M413.243,277.827a57.436,57.436,0,0,1-6.523-7.083,13.127,13.127,0,0,0-7.593-5.1c-2.548-.815-4.433.408-4.331,1.784a3.5,3.5,0,0,0,1.478,2.293s-1.325,6.574-.815,7.9c.51,1.274.1,2.293.866,3.465s2.293,1.987,6.981,2.65,5.249.713,5.249.713,11.924,19.67,14.676,22.014,8.153,2.548,10.039.611c1.936-1.936,1.987-9.223.968-10.65S413.243,277.827,413.243,277.827Z"
                    data-name="Path 14962" fill="#fff" id="Path_14962" stroke="#263238"
                    stroke-linecap="round" stroke-linejoin="round" stroke-miterlimit="10"
                    stroke-width="1" transform="translate(-321.263 -196.378)" />
            </g>
        </g>
        <line data-name="Line 190" fill="none" id="Line_190" stroke="#a6aeba" stroke-miterlimit="10"
            stroke-width="0.5" transform="translate(-54.322 249.121)" x2="328" />
    </g>
</svg>
