<svg height="20" viewBox="0 0 20 20" width="20" xmlns="http://www.w3.org/2000/svg">
    <path style="fill:#777"
        d="M16.81 23H5.381A2.384 2.384 0 0 1 3 20.619V5.381A2.384 2.384 0 0 1 5.381 3h7.362a2.392 2.392 0 0 1 1.7.714l4.066 4.161a2.376 2.376 0 0 1 .679 1.667v3.548a.476.476 0 1 1-.952 0V9.543a1.429 1.429 0 0 0-.408-1l-4.064-4.162a1.431 1.431 0 0 0-1.021-.429H5.381a1.429 1.429 0 0 0-1.429 1.429v15.238a1.429 1.429 0 0 0 1.429 1.429H16.81a1.364 1.364 0 0 0 .524-.1.476.476 0 1 1 .362.881 2.318 2.318 0 0 1-.886.171z"
        data-name="Path 151" transform="translate(-3 -3)" />
    <path style="fill:#777"
        d="M29.519 9.353h-3.138A2.384 2.384 0 0 1 24 6.972V3.786a.476.476 0 0 1 .952 0v3.186A1.429 1.429 0 0 0 26.381 8.4h3.138a.476.476 0 1 1 0 .952z"
        data-name="Path 152" transform="translate(-14 -3.162)" />
    <path style="fill:#777"
        d="M28.238 32.959a.949.949 0 0 1-.528-.16l-1.53-1.02A7.127 7.127 0 0 1 23 25.838v-.815a.957.957 0 0 1 .734-.926 14.25 14.25 0 0 0 3.989-1.8.952.952 0 0 1 1.031 0 14.242 14.242 0 0 0 3.989 1.8.957.957 0 0 1 .734.926v.815a7.127 7.127 0 0 1-3.177 5.943L28.766 32.8a.949.949 0 0 1-.528.158zm0-9.862a15.19 15.19 0 0 1-4.274 1.925l-.011.816a6.178 6.178 0 0 0 2.757 5.151l1.529 1.018 1.529-1.02a6.178 6.178 0 0 0 2.757-5.149v-.815a15.238 15.238 0 0 1-4.287-1.923z"
        data-name="Path 153" transform="translate(-13.476 -13.029)" />
    <path style="fill:#777"
        d="M31.429 32.857a.476.476 0 0 1-.337-.139l-.952-.952a.476.476 0 1 1 .673-.673l.616.616L33 30.14a.476.476 0 1 1 .673.673l-1.9 1.9a.476.476 0 0 1-.344.144z"
        data-name="Path 154" transform="translate(-17.143 -17.143)" />
    <path style="fill:#777"
        d="M13.286 11.952h-3.81a.476.476 0 0 1 0-.952h3.81a.476.476 0 1 1 0 .952z"
        data-name="Path 155" transform="translate(-6.143 -7.19)" />
    <path style="fill:#777"
        d="M16.143 17.952H9.476a.476.476 0 1 1 0-.952h6.667a.476.476 0 1 1 0 .952z"
        data-name="Path 156" transform="translate(-6.143 -10.333)" />
    <path style="fill:#777" d="M17.1 23.952H9.476a.476.476 0 1 1 0-.952H17.1a.476.476 0 1 1 0 .952z"
        data-name="Path 157" transform="translate(-6.143 -13.476)" />
    <path style="fill:#777"
        d="M14.238 29.952H9.476a.476.476 0 0 1 0-.952h4.762a.476.476 0 0 1 0 .952z"
        data-name="Path 158" transform="translate(-6.143 -16.619)" />
    <path style="fill:#777"
        d="M14.238 35.952H9.476a.476.476 0 1 1 0-.952h4.762a.476.476 0 0 1 0 .952z"
        data-name="Path 159" transform="translate(-6.143 -19.762)" />
</svg>
