<svg height="17.257" viewBox="0 0 20 17.257" width="20" xmlns="http://www.w3.org/2000/svg">
    <g data-name="send (1)">
        <g data-name="Group 126">
            <path
                d="M18.808 6.844 2.672.149A1.931 1.931 0 0 0 .06 2.41l1.586 6.218L.06 14.846a1.931 1.931 0 0 0 2.612 2.261l16.136-6.7a1.931 1.931 0 0 0 0-3.568zm-.449 2.485-16.136 6.7a.759.759 0 0 1-1.023-.893l1.51-5.922h5.819a.586.586 0 1 0 0-1.172H2.706L1.2 2.12a.759.759 0 0 1 1.027-.889l16.136 6.7a.759.759 0 0 1 0 1.4z"
                data-name="Path 60" />
        </g>
    </g>
</svg>
