<svg height="18" viewBox="0 0 18.002 18" width="18.002" xmlns="http://www.w3.org/2000/svg">
    <path style="fill:#fff"
        d="M97.108 93.16c-.747-.767-2.869-2.2-4.26-2.2a1.513 1.513 0 0 0-.834.22 4.577 4.577 0 0 1-1.483.772c-.143 0-.3-.128-.634-.419l-.056-.051a17.742 17.742 0 0 1-1.5-1.4l-.092-.1c-.066-.066-.123-.128-.179-.184-.317-.327-.547-.562-1.36-1.483l-.036-.041c-.389-.44-.644-.726-.66-.936s.164-.537.619-1.156a2.529 2.529 0 0 0 .066-2.736 12.446 12.446 0 0 0-1.647-2.362L85 81.02a2.208 2.208 0 0 0-1.734-.92 3.07 3.07 0 0 0-1.636.593c-.026.015-.051.036-.077.051a3.282 3.282 0 0 0-1.422 1.7c-.291.946-.486 2.173.91 4.725a22.833 22.833 0 0 0 4.04 5.477 24.408 24.408 0 0 0 3.989 3.4 9.272 9.272 0 0 0 4.77 2.054 3.477 3.477 0 0 0 3.288-1.529c1.33-1.606.777-2.588-.02-3.411zm-.588 2.859a2.72 2.72 0 0 1-2.674 1.238 8.734 8.734 0 0 1-4.306-1.907 23.635 23.635 0 0 1-3.881-3.3 22.03 22.03 0 0 1-3.907-5.293c-1.232-2.255-1.094-3.242-.844-4.055a2.453 2.453 0 0 1 1.074-1.237c.026-.015.051-.036.082-.051a2.36 2.36 0 0 1 1.212-.465 1.439 1.439 0 0 1 1.12.629l.051.061c1.3 1.6 2.322 3.007 1.555 4.05a2.723 2.723 0 0 0-.782 1.739c.041.5.373.869.874 1.432l.036.041c.823.931 1.059 1.176 1.386 1.509.056.056.113.118.179.184l.092.1a19.958 19.958 0 0 0 1.549 1.452l.056.051a1.776 1.776 0 0 0 1.151.619 4.145 4.145 0 0 0 1.907-.895.767.767 0 0 1 .409-.1c1.11 0 3.022 1.268 3.692 1.959.614.624.92 1.094-.031 2.245z"
        data-name="telephone" transform="translate(-79.927 -80.1)" />
</svg>
