<svg height="20" viewBox="0 0 15.039 20" width="15.039" xmlns="http://www.w3.org/2000/svg">
    <path style="fill:#777"
        d="M9.828 122.664a.293.293 0 0 0-.293.293v1.218H-2.389a.293.293 0 0 0-.293.293.293.293 0 0 0 .293.293H9.535v.879a.489.489 0 0 1-.488.488H-3.844a.489.489 0 0 1-.488-.488v-.879h.684a.293.293 0 0 0 .293-.293.293.293 0 0 0-.293-.293h-.684v-13.726a.293.293 0 0 0-.293-.293.293.293 0 0 0-.293.293v15.19a1.075 1.075 0 0 0 1.074 1.074H9.047a1.075 1.075 0 0 0 1.074-1.074v-2.682a.293.293 0 0 0-.293-.293zm0 0"
        data-name="Path 139" transform="translate(4.918 -106.714)" />
    <path style="fill:#777"
        d="M9.047 1.172H5.318C5.139 1.015 4.9.925 4.736.613A1.148 1.148 0 0 0 3.708 0H1.489A1.143 1.143 0 0 0 .47.618c-.155.31-.385.392-.57.554h-3.744a1.075 1.075 0 0 0-1.074 1.074v.244a.293.293 0 0 0 .293.293.293.293 0 0 0 .293-.293v-.244a.489.489 0 0 1 .488-.488h3.331a1.529 1.529 0 0 0-.108.566.606.606 0 0 0 .605.605h5.235a.606.606 0 0 0 .605-.605v-.033a1.491 1.491 0 0 0-.1-.533h3.32a.489.489 0 0 1 .488.488V15a.293.293 0 0 0 .586 0V2.246a1.075 1.075 0 0 0-1.071-1.074zM5.238 2.324a.02.02 0 0 1-.02.02H-.016a.02.02 0 0 1-.02-.02c0-.795.666-.719 1.029-1.444a.553.553 0 0 1 .5-.294h2.215a.571.571 0 0 1 .507.3c.369.711 1.023.648 1.023 1.408zm0 0"
        data-name="Path 140" transform="translate(4.918)" />
    <path style="fill:#777"
        d="M191.469 37.5h-2.344a.293.293 0 0 0 0 .586h2.344a.293.293 0 0 0 0-.586zm0 0"
        data-name="Path 141" transform="translate(-182.777 -36.328)" />
    <path style="fill:#777"
        d="M100.287 131.039a.293.293 0 0 0 0-.586h-9.76a.293.293 0 0 0 0 .586zm0 0"
        data-name="Path 142" transform="translate(-87.261 -126.376)" />
    <path style="fill:#777"
        d="M50.043 182.383a.293.293 0 0 0 .293.293h11.016a.293.293 0 0 0 0-.586H50.336a.293.293 0 0 0-.293.293zm0 0"
        data-name="Path 143" transform="translate(-48.325 -176.4)" />
    <path style="fill:#777"
        d="M50.336 234.313h11.016a.293.293 0 0 0 0-.586H50.336a.293.293 0 0 0 0 .586zm0 0"
        data-name="Path 144" transform="translate(-48.325 -226.423)" />
    <path style="fill:#777"
        d="M50.336 285.953h11.016a.293.293 0 0 0 0-.586H50.336a.293.293 0 0 0 0 .586zm0 0"
        data-name="Path 145" transform="translate(-48.325 -276.449)" />
    <path style="fill:#777"
        d="M50.336 337.586h4.006a.293.293 0 0 0 0-.586h-4.006a.293.293 0 0 0 0 .586zm0 0"
        data-name="Path 146" transform="translate(-48.325 -326.469)" />
    <path style="fill:#777"
        d="M50.336 389.223h4.006a.293.293 0 0 0 0-.586h-4.006a.293.293 0 0 0 0 .586zm0 0"
        data-name="Path 147" transform="translate(-48.325 -376.492)" />
    <path style="fill:#777"
        d="M50.336 440.863h4.006a.293.293 0 0 0 0-.586h-4.006a.293.293 0 0 0 0 .586zm0 0"
        data-name="Path 148" transform="translate(-48.325 -426.519)" />
    <path style="fill:#777"
        d="M264.055 364.635a.293.293 0 0 0-.409.067l-1.938 2.691-1.29-1.276a.293.293 0 0 0-.412.417l1.533 1.517a.293.293 0 0 0 .206.085h.024a.292.292 0 0 0 .213-.121l2.139-2.969a.293.293 0 0 0-.066-.411zm0 0"
        data-name="Path 149" transform="translate(-251.643 -353.186)" />
    <path style="fill:#777"
        d="M232.711 327.078H228.8a1.154 1.154 0 0 0-1.152 1.152v3.906a1.154 1.154 0 0 0 1.152 1.152h3.906a1.154 1.154 0 0 0 1.152-1.152v-3.906a1.154 1.154 0 0 0-1.147-1.152zm.566 5.059a.567.567 0 0 1-.566.566H228.8a.567.567 0 0 1-.566-.566v-3.907a.567.567 0 0 1 .566-.566h3.906a.567.567 0 0 1 .566.566zm0 0"
        data-name="Path 150" transform="translate(-220.384 -316.857)" />
</svg>
