<svg data-name="user (1)" height="24" viewBox="0 0 20.023 24" width="20.023"
    xmlns="http://www.w3.org/2000/svg">
    <path style="fill:#f0a04b"
        d="M92.812 11.561A5.593 5.593 0 0 0 96.9 9.867a5.593 5.593 0 0 0 1.692-4.087A5.594 5.594 0 0 0 96.9 1.693a5.779 5.779 0 0 0-8.174 0 5.593 5.593 0 0 0-1.695 4.087 5.593 5.593 0 0 0 1.694 4.087 5.594 5.594 0 0 0 4.087 1.694zm0 0"
        data-name="Path 21" transform="translate(-82.952)" />
    <path style="fill:#f0a04b"
        d="M19.975 254.178a14.278 14.278 0 0 0-.194-1.516 11.948 11.948 0 0 0-.373-1.525 7.531 7.531 0 0 0-.627-1.422 5.366 5.366 0 0 0-.945-1.232 4.167 4.167 0 0 0-1.358-.853 4.692 4.692 0 0 0-1.733-.314 1.759 1.759 0 0 0-.94.4c-.282.184-.611.4-.979.631a5.607 5.607 0 0 1-1.266.558 4.917 4.917 0 0 1-3.1 0 5.594 5.594 0 0 1-1.265-.558c-.364-.233-.694-.445-.98-.631a1.757 1.757 0 0 0-.939-.4 4.686 4.686 0 0 0-1.733.314 4.164 4.164 0 0 0-1.358.853 5.366 5.366 0 0 0-.945 1.232 7.546 7.546 0 0 0-.627 1.422 11.977 11.977 0 0 0-.373 1.525 14.227 14.227 0 0 0-.194 1.517c-.032.459-.048.936-.048 1.417a3.985 3.985 0 0 0 1.184 3.015 4.261 4.261 0 0 0 3.05 1.113H15.79a4.26 4.26 0 0 0 3.05-1.113 3.983 3.983 0 0 0 1.184-3.015 21.029 21.029 0 0 0-.049-1.418zm0 0"
        data-name="Path 22" transform="translate(0 -235.724)" />
</svg>
