<svg height="18.536" viewBox="0 0 20 18.536" width="20" xmlns="http://www.w3.org/2000/svg">
    <g data-name="Group 158">
        <path style="fill:#777"
            d="M19.427 228.235a.571.571 0 0 0-.573.573v5.212a2.571 2.571 0 0 1-2.568 2.568H3.714a2.571 2.571 0 0 1-2.568-2.568v-5.3a.573.573 0 0 0-1.146 0v5.3a3.718 3.718 0 0 0 3.714 3.714h12.572A3.718 3.718 0 0 0 20 234.02v-5.212a.573.573 0 0 0-.573-.573z"
            data-name="Path 123" transform="translate(0 -219.198)" />
        <path style="fill:#777"
            d="m137.3 21.872 2.666-2.666v11.626a.573.573 0 1 0 1.146 0V19.207l2.666 2.666a.577.577 0 0 0 .4.17.552.552 0 0 0 .4-.17.571.571 0 0 0 0-.811l-3.642-3.642a.58.58 0 0 0-.4-.17.555.555 0 0 0-.4.17l-3.642 3.642a.572.572 0 0 0 .806.811z"
            data-name="Path 124" transform="translate(-130.539 -17.25)" />
    </g>
</svg>
