<svg height="20" viewBox="0 0 20 20" width="20" xmlns="http://www.w3.org/2000/svg">
    <defs>
        <clipPath id="jc9ko9rrya">
            <path style="fill:#727272" d="M0 0h20v20H0z" data-name="Rectangle 102"
                transform="translate(-4155 15191)" />
        </clipPath>
    </defs>
    <g style="clip-path:url(#jc9ko9rrya)" data-name="Mask Group 9"
        transform="translate(4155 -15191)">
        <path style="fill:#727272"
            d="m20.219 4.281-2.5-3.25a.325.325 0 0 0-.5 0l-2.5 3.25a.335.335 0 0 0-.031.344.359.359 0 0 0 .281.188h1.063V8.75a.3.3 0 0 0 .313.313h2.281a.3.3 0 0 0 .313-.312v-3.97H20a.3.3 0 0 0 .219-.5zm-1.594-.125a.3.3 0 0 0-.312.313v3.969h-1.657V4.469a.3.3 0 0 0-.312-.312h-.719L17.5 1.75l1.875 2.406z"
            data-name="Path 226" transform="translate(-4155.316 15190.688)" />
        <path style="fill:#727272"
            d="M4.594 13.969V10h1.062a.3.3 0 0 0 .281-.187.342.342 0 0 0-.031-.344l-2.5-3.25a.325.325 0 0 0-.5 0l-2.5 3.25a.287.287 0 0 0-.031.344.273.273 0 0 0 .281.187h1.063v3.969a.3.3 0 0 0 .313.313h2.281a.308.308 0 0 0 .281-.312zm-.625-4.281v3.969H2.313V9.688A.3.3 0 0 0 2 9.375h-.719l1.875-2.406 1.875 2.406h-.719a.342.342 0 0 0-.344.313z"
            data-name="Path 227" transform="translate(-4155.316 15190.688)" />
        <path style="fill:#727272"
            d="M10.563 4.438a2.081 2.081 0 0 0 2.062-2.062 2.062 2.062 0 1 0-2.062 2.063zm0-3.5A1.454 1.454 0 0 1 12 2.375a1.437 1.437 0 1 1-2.875 0A1.434 1.434 0 0 1 10.563.938z"
            data-name="Path 228" transform="translate(-4155.316 15190.688)" />
        <path style="fill:#727272"
            d="M13.094 15.625v-3.562h.156a1.132 1.132 0 0 0 1.031-1.219V7.187a2.359 2.359 0 0 0-2.094-2.531H8.594A2.339 2.339 0 0 0 6.5 7.187v3.656a1.153 1.153 0 0 0 1.031 1.219h.156v3.563c-2.062.406-3.312 1.219-3.312 2.219 0 1.594 3.094 2.469 6 2.469 3.438 0 6-1.062 6-2.469.031-1-1.219-1.812-3.281-2.219zm-5.563-4.187c-.219 0-.406-.281-.406-.594V7.187a1.744 1.744 0 0 1 1.469-1.906h3.594a1.724 1.724 0 0 1 1.469 1.906v3.656c0 .313-.187.594-.406.594h-.156V8.656a.313.313 0 0 0-.625 0v8.875h-1.75V13a.313.313 0 0 0-.625 0v4.531H8.344V8.656a.313.313 0 0 0-.625 0v2.781zm2.875 8.25C7.219 19.688 5 18.719 5 17.844c0-.625 1.094-1.25 2.688-1.594v1.594a.3.3 0 0 0 .312.312h4.75a.3.3 0 0 0 .313-.312V16.25c1.594.344 2.687.969 2.687 1.594.031.875-2.187 1.844-5.344 1.844z"
            data-name="Path 229" transform="translate(-4155.316 15190.688)" />
    </g>
</svg>
