<svg height="214.527" viewBox="0 0 250 214.527" width="250" xmlns="http://www.w3.org/2000/svg">
    <g>
        <path style="fill:#e6e6e6"
            d="M309.09 653.644a8.891 8.891 0 0 0 8.586-1.512c3.007-2.524 3.95-6.682 4.717-10.532l2.269-11.389-4.751 3.271c-3.417 2.352-6.91 4.78-9.275 8.188s-3.4 8.059-1.5 11.746"
            data-name="Path 438" transform="translate(-290.317 -456.775)" />
        <path style="fill:#f2f2f2"
            d="M311.1 684.965c-.6-4.356-1.213-8.769-.793-13.172a20.719 20.719 0 0 1 3.994-10.861 18.067 18.067 0 0 1 4.636-4.2c.463-.292.89.442.429.733a17.177 17.177 0 0 0-6.795 8.2 27.534 27.534 0 0 0-1.462 11.86c.154 2.417.481 4.818.81 7.216a.44.44 0 0 1-.3.522.427.427 0 0 1-.522-.3z"
            data-name="Path 439" transform="translate(-291.592 -473.514)" />
        <path style="fill:#e6e6e6"
            d="M324.424 702.491a6.545 6.545 0 0 0 5.7 2.944c2.888-.137 5.294-2.152 7.46-4.065l6.416-5.658-4.241-.2c-3.05-.146-6.179-.283-9.084.659s-5.584 3.2-6.115 6.211"
            data-name="Path 442" transform="translate(-300.614 -498.03)" />
        <path style="fill:#f2f2f2"
            d="M308 717.9c2.879-5.094 6.217-10.754 12.184-12.564a13.594 13.594 0 0 1 5.124-.529c.544.047.408.885-.135.839a12.631 12.631 0 0 0-8.173 2.168 21.256 21.256 0 0 0-5.621 6.066c-.931 1.418-1.765 2.9-2.6 4.371-.265.471-1.044.131-.779-.351z"
            data-name="Path 443" transform="translate(-290.188 -503.95)" />
        <path style="fill:#fff"
            d="M658.709 308.96H500a1.847 1.847 0 0 1-1.845-1.845V159.729a1.847 1.847 0 0 1 1.845-1.845h158.709a1.847 1.847 0 0 1 1.845 1.845v147.386a1.847 1.847 0 0 1-1.845 1.845z"
            data-name="Path 141" transform="translate(-410.553 -157.884)" />
        <path style="fill:#cacaca"
            d="M658.709 308.96H500a1.847 1.847 0 0 1-1.845-1.845V159.729a1.847 1.847 0 0 1 1.845-1.845h158.709a1.847 1.847 0 0 1 1.845 1.845v147.386a1.847 1.847 0 0 1-1.845 1.845zM500 158.62a1.108 1.108 0 0 0-1.106 1.106v147.389A1.108 1.108 0 0 0 500 308.22h158.709a1.108 1.108 0 0 0 1.106-1.106V159.729a1.108 1.108 0 0 0-1.106-1.106z"
            data-name="Path 141" transform="translate(-410.553 -157.884)" />
        <path style="fill:#e4e4e4"
            d="M705.252 262.185a1.252 1.252 0 0 0 0 2.5h68.718a1.252 1.252 0 0 0 0-2.5z"
            data-name="Path 142" transform="translate(-540.812 -223.886)" />
        <path style="fill:#e4e4e4"
            d="M705.252 282.65a1.252 1.252 0 0 0 0 2.5h35.082a1.252 1.252 0 0 0 0-2.5z"
            data-name="Path 143" transform="translate(-540.812 -236.837)" />
        <path style="fill:#e4e4e4"
            d="M541.683 392.7a1.252 1.252 0 0 0 0 2.5h128.846a1.252 1.252 0 1 0 0-2.5z"
            data-name="Path 142" transform="translate(-437.304 -306.48)" />
        <path style="fill:#e4e4e4"
            d="M541.683 413.17a1.252 1.252 0 0 0 0 2.5h95.21a1.252 1.252 0 0 0 0-2.5z"
            data-name="Path 143" transform="translate(-437.304 -319.43)" />
        <path style="fill:#e4e4e4"
            d="M541.683 433.172a1.252 1.252 0 0 0 0 2.5h128.846a1.252 1.252 0 1 0 0-2.5z"
            data-name="Path 142" transform="translate(-437.304 -332.088)" />
        <path style="fill:#e4e4e4"
            d="M541.683 453.637a1.252 1.252 0 0 0 0 2.5h95.21a1.252 1.252 0 1 0 0-2.5z"
            data-name="Path 143" transform="translate(-437.304 -345.038)" />
        <path style="fill:#e4e4e4"
            d="M541.683 474.172a1.252 1.252 0 0 0 0 2.5h128.846a1.252 1.252 0 1 0 0-2.5z"
            data-name="Path 142" transform="translate(-437.304 -358.033)" />
        <path style="fill:#e4e4e4"
            d="M541.683 494.637a1.252 1.252 0 0 0 0 2.5h95.21a1.252 1.252 0 0 0 0-2.5z"
            data-name="Path 143" transform="translate(-437.304 -370.983)" />
        <path style="fill:#f0a04b"
            d="M568.412 262.813a17.993 17.993 0 1 1 17.988-17.992 17.993 17.993 0 0 1-17.988 17.992z"
            data-name="Path 162" transform="translate(-443.625 -201.512)" />
        <path style="fill:#a0616a"
            d="M420.67 488.466a4.5 4.5 0 0 0-5.491-4.172l-5.947-8.381-5.975 2.372L411.822 490a4.522 4.522 0 0 0 8.848-1.536z"
            data-name="Path 163" transform="translate(-350.5 -359.134)" />
        <path style="fill:#78af6c"
            d="m388.1 419.646-18-23.345 6.743-21.191c.494-5.328 3.828-6.815 3.97-6.876l.216-.093 5.867 15.647-4.308 11.488 10.574 17.784z"
            data-name="Path 164" transform="translate(-329.521 -290.936)" />
        <path style="fill:#deb9bf"
            d="M569.263 312.352a4.5 4.5 0 0 0-3.735 5.8l-7.9 6.577 2.827 5.773 11.021-9.445a4.522 4.522 0 0 0-2.216-8.7z"
            data-name="Path 165" transform="translate(-448.189 -255.608)" />
        <path style="fill:#78af6c"
            d="m502.507 336.194-21.884 19.746-21.649-5.084c-5.35-.081-7.091-3.29-7.163-3.426l-.109-.209 15.146-7.06 11.787 3.407 16.913-11.917z"
            data-name="Path 166" transform="translate(-381.156 -267.845)" />
        <path style="fill:#deb9bf" d="M227.246 529.352h5.88l2.8-22.679h-8.678z" data-name="Path 167"
            transform="translate(-143.802 -320.625)" />
        <path style="fill:#171717" d="M0 0h18.479v7.14H5.184A5.184 5.184 0 0 1 0 1.955V0z"
            data-name="Path 168" transform="rotate(179.997 50.329 107.095)" />
        <path style="fill:#deb9bf" d="M163.246 529.352h5.88l2.8-22.679h-8.678z" data-name="Path 169"
            transform="translate(-103.302 -320.625)" />
        <path style="fill:#171717" d="M0 0h18.479v7.14H5.184A5.184 5.184 0 0 1 0 1.955z"
            data-name="Path 170" transform="rotate(179.997 38.578 107.094)" />
        <path style="fill:#183a1d"
            d="m157.552 342.991.48 33.572.48 44.124 10.551-.959 5.276-60.909 6.715 60.909h10.893l1.1-61.389-3.837-13.429z"
            data-name="Path 171" transform="translate(-99.7 -217.047)" />
        <path style="fill:#78af6c"
            d="M421.619 398.344c-11.48 0-22.048-5.2-22.191-5.267l-.119-.059-.963-23.121c-.279-.817-5.781-16.939-6.712-22.063-.944-5.192 12.737-9.748 14.4-10.281l.377-4.176 15.332-1.652 1.943 5.344 5.5 2.062a2.721 2.721 0 0 1 1.686 3.2l-3.057 12.432 7.466 41.13-1.607.07a29.19 29.19 0 0 1-12.055 2.381z"
            data-name="Path 172" transform="translate(-343.115 -267.891)" />
        <circle style="fill:#deb9bf" cx="11.039" cy="11.039" data-name="Ellipse 16" r="11.039"
            transform="rotate(-28.663 117.842 -87.853)" />
        <path style="fill:#171717"
            d="M420.833 280.152a3.642 3.642 0 0 0 6.285-2.023 3.7 3.7 0 0 0 0-.714c-.142-1.356-.925-2.587-.737-4.019a2.107 2.107 0 0 1 .386-.987c1.676-2.245 5.612 1 7.194-1.028.97-1.246-.17-3.208.574-4.6.983-1.838 3.893-.931 5.718-1.938 2.031-1.12 1.909-4.236.572-6.131a9.644 9.644 0 0 0-7.311-3.722 19.611 19.611 0 0 0-8.261 1.612c-2.994 1.167-5.963 2.779-7.806 5.412-2.241 3.2-2.456 7.506-1.336 11.25.678 2.276 3.004 5.058 4.722 6.888z"
            data-name="Path 173" transform="translate(-358.213 -219.316)" />
        <path style="fill:#cacaca"
            d="M399.849 740.7h-139.9a.367.367 0 0 1 0-.734h139.9a.367.367 0 0 1 0 .734z"
            data-name="Path 174" transform="translate(-259.581 -526.227)" />
        <path style="fill:#fff"
            d="M584.151 271.263a1.281 1.281 0 0 1-.874-.344l-5.933-5.511a1.285 1.285 0 0 1 1.749-1.883l5.025 4.668 9.942-9.942a1.285 1.285 0 1 1 1.817 1.818l-10.817 10.817a1.282 1.282 0 0 1-.909.377z"
            data-name="Path 175" transform="translate(-460.403 -221.159)" />
    </g>
</svg>
