<svg height="24" viewBox="0 0 20.023 24" width="20.023" xmlns="http://www.w3.org/2000/svg">
    <path style="fill:#fff"
        d="M92.812 11.561A5.593 5.593 0 0 0 96.9 9.867a5.594 5.594 0 0 0 1.693-4.087A5.594 5.594 0 0 0 96.9 1.693a5.779 5.779 0 0 0-8.174 0 5.593 5.593 0 0 0-1.695 4.087 5.594 5.594 0 0 0 1.694 4.087 5.6 5.6 0 0 0 4.087 1.694zm-3.093-8.873a4.373 4.373 0 0 1 6.185 0 4.179 4.179 0 0 1 1.282 3.092A4.179 4.179 0 0 1 95.9 8.873a4.372 4.372 0 0 1-6.185 0 4.178 4.178 0 0 1-1.277-3.093 4.179 4.179 0 0 1 1.281-3.092zm0 0"
        data-name="Path 19" transform="translate(-82.952)" />
    <path style="fill:#fff"
        d="M19.975 254.178a14.278 14.278 0 0 0-.194-1.516 11.948 11.948 0 0 0-.373-1.525 7.532 7.532 0 0 0-.627-1.422 5.36 5.36 0 0 0-.945-1.232 4.167 4.167 0 0 0-1.358-.853 4.692 4.692 0 0 0-1.733-.314 1.759 1.759 0 0 0-.94.4c-.282.184-.611.4-.979.631a5.608 5.608 0 0 1-1.266.558 4.917 4.917 0 0 1-3.1 0 5.591 5.591 0 0 1-1.265-.558c-.364-.233-.694-.445-.98-.631a1.757 1.757 0 0 0-.939-.4 4.686 4.686 0 0 0-1.733.314 4.164 4.164 0 0 0-1.358.853 5.362 5.362 0 0 0-.945 1.232 7.546 7.546 0 0 0-.627 1.422 11.976 11.976 0 0 0-.373 1.525 14.18 14.18 0 0 0-.194 1.517c-.032.458-.048.935-.048 1.417a3.985 3.985 0 0 0 1.184 3.015 4.26 4.26 0 0 0 3.05 1.112H15.79a4.261 4.261 0 0 0 3.05-1.112 3.984 3.984 0 0 0 1.184-3.015 21.029 21.029 0 0 0-.049-1.418zm-2.1 3.414a2.869 2.869 0 0 1-2.08.725H4.234a2.869 2.869 0 0 1-2.08-.725 2.6 2.6 0 0 1-.747-2c0-.45.015-.894.044-1.32a12.791 12.791 0 0 1 .176-1.366 10.563 10.563 0 0 1 .328-1.344 6.143 6.143 0 0 1 .51-1.156 3.974 3.974 0 0 1 .695-.91 2.764 2.764 0 0 1 .9-.562 3.236 3.236 0 0 1 1.108-.214c.049.026.137.076.279.169.289.188.622.4.991.639a6.968 6.968 0 0 0 1.59.71 6.323 6.323 0 0 0 3.963 0 6.976 6.976 0 0 0 1.59-.711c.377-.241.7-.45.99-.638.142-.092.23-.143.279-.169a3.239 3.239 0 0 1 1.108.214 2.769 2.769 0 0 1 .9.562 3.963 3.963 0 0 1 .695.91 6.123 6.123 0 0 1 .51 1.156 10.538 10.538 0 0 1 .328 1.344 12.9 12.9 0 0 1 .176 1.366c.03.425.045.868.045 1.319a2.6 2.6 0 0 1-.742 2.001zm0 0"
        data-name="Path 20" transform="translate(0 -235.723)" />
</svg>
