<svg height="24" viewBox="0 0 29.023 24" width="29.023" xmlns="http://www.w3.org/2000/svg">
    <g data-name="Group 44">
        <g data-name="Group 43">
            <path style="fill:#fff"
                d="M24.837 44.308H4.186A4.191 4.191 0 0 0 0 48.494v15.628a4.191 4.191 0 0 0 4.186 4.186h20.651a4.191 4.191 0 0 0 4.186-4.186V48.494a4.191 4.191 0 0 0-4.186-4.186zm2.512 14.512h-6.14a2.512 2.512 0 0 1 0-5.023h6.14v5.023zm0-6.7h-6.14a4.186 4.186 0 1 0 0 8.372h6.14v3.628a2.514 2.514 0 0 1-2.512 2.512H4.186a2.514 2.514 0 0 1-2.512-2.512V48.494a2.514 2.514 0 0 1 2.512-2.512h20.651a2.514 2.514 0 0 1 2.512 2.512v3.628z"
                data-name="Path 15" transform="translate(0 -44.308)" />
        </g>
    </g>
    <g data-name="Group 46">
        <g data-name="Group 45">
            <path style="fill:#fff"
                d="M361.339 241.231h-1.116a.837.837 0 1 0 0 1.674h1.116a.837.837 0 0 0 0-1.674z"
                data-name="Path 16" transform="translate(-339.013 -230.068)" />
        </g>
    </g>
</svg>
