<svg height="45" viewBox="0 0 32.882 45" width="32.882" xmlns="http://www.w3.org/2000/svg">
    <g id="g20" transform="translate(-11.684 50.625)">
        <g id="g22">
            <g id="g24">
                <path
                    d="M11.684-7.534V-48.716a1.909,1.909,0,0,1,1.909-1.909H30.279L44.566-36.338v28.8a1.909,1.909,0,0,1-1.909,1.909H13.592a1.909,1.909,0,0,1-1.909-1.909Z"
                    fill="#2b2b2b" fill-rule="evenodd" id="path26" />
            </g>
        </g>
        <g id="g28">
            <g id="g30">
                <path d="M30.279-50.625,44.566-36.338H32.188a1.909,1.909,0,0,1-1.909-1.909Z"
                    fill="#525252" fill-rule="evenodd" id="path32" />
            </g>
        </g>
        <g id="g34">
            <g id="g36">
                <path
                    d="M21.07-15.754a1.832,1.832,0,0,1-.669,1.478,2.516,2.516,0,0,1-1.667.492h-.971v2.956H16.8V-17.72h1.936a2.5,2.5,0,0,1,1.667.489A1.867,1.867,0,0,1,21.07-15.754Zm-1.42.921a1.074,1.074,0,0,0,.42-.921,1.038,1.038,0,0,0-.42-.908,1.688,1.688,0,0,0-1-.267h-.892v2.355h.892A1.72,1.72,0,0,0,19.65-14.833Z"
                    fill="#e6e6e6" id="path38" />
            </g>
        </g>
        <g id="g40">
            <g id="g42">
                <path
                    d="M27.963-17.72v6.892h-.951L23.036-16.32q.019.928.02,1.825v3.668H22.1V-17.72h1.019l3.9,5.415q-.009-.849-.01-1.761V-17.72h.951Z"
                    fill="#e6e6e6" id="path44" />
            </g>
        </g>
        <g id="g46">
            <g id="g48">
                <path
                    d="M35.542-14.505v2.678A3.975,3.975,0,0,1,32.616-10.7a3.437,3.437,0,0,1-2.507-.991,3.455,3.455,0,0,1-1.009-2.58,3.43,3.43,0,0,1,1-2.562,3.438,3.438,0,0,1,2.5-.984,3.564,3.564,0,0,1,2.736,1.151l.049.049-.659.61a2.675,2.675,0,0,0-2.126-.98,2.4,2.4,0,0,0-1.8.734,2.735,2.735,0,0,0-.71,1.982,2.691,2.691,0,0,0,.73,1.977,2.468,2.468,0,0,0,1.836.74,2.724,2.724,0,0,0,1.868-.556l.069-.074v-1.526H32.742v-.79h2.8Z"
                    fill="#e6e6e6" id="path50" />
            </g>
        </g>
    </g>
</svg>
