<svg height="45" viewBox="0 0 32.882 45" width="32.882" xmlns="http://www.w3.org/2000/svg">
    <g id="g20" transform="translate(-11.684 50.625)">
        <g id="g22">
            <g id="g24">
                <path
                    d="M11.684-7.534V-48.716a1.909,1.909,0,0,1,1.909-1.909H30.279L44.566-36.338v28.8a1.909,1.909,0,0,1-1.909,1.909H13.592a1.909,1.909,0,0,1-1.909-1.909Z"
                    fill="#2b2b2b" fill-rule="evenodd" id="path26" />
            </g>
        </g>
        <g id="g28">
            <g id="g30">
                <path d="M30.279-50.625,44.566-36.338H32.188a1.909,1.909,0,0,1-1.909-1.909Z"
                    fill="#525252" fill-rule="evenodd" id="path32" />
            </g>
        </g>
        <g id="g34">
            <g id="g36">
                <path
                    d="M17.763-17.72v6.872a2.743,2.743,0,0,1-.308,1.459,1.3,1.3,0,0,1-1.111.561,2.3,2.3,0,0,1-.359-.028,1.889,1.889,0,0,1-.274-.056A1.007,1.007,0,0,1,15.6-8.95l.019-.741a1.508,1.508,0,0,0,.532.084.5.5,0,0,0,.524-.315,2.54,2.54,0,0,0,.125-.895v-6.9h.965Z"
                    fill="#e6e6e6" id="path38" />
            </g>
        </g>
        <g id="g40">
            <g id="g42">
                <path
                    d="M23.552-15.754a1.832,1.832,0,0,1-.669,1.478,2.516,2.516,0,0,1-1.667.492h-.971v2.956H19.28V-17.72h1.936a2.5,2.5,0,0,1,1.667.489A1.867,1.867,0,0,1,23.552-15.754Zm-1.42.921a1.074,1.074,0,0,0,.42-.921,1.038,1.038,0,0,0-.42-.907,1.688,1.688,0,0,0-.995-.267h-.893v2.355h.893a1.72,1.72,0,0,0,.995-.259Z"
                    fill="#e6e6e6" id="path44" />
            </g>
        </g>
        <g id="g46">
            <g id="g48">
                <path
                    d="M28.694-11.648v.82H24.583V-17.72h4.034v.81H25.548v2.059h2.9v.81h-2.9v2.394Z"
                    fill="#e6e6e6" id="path50" />
            </g>
        </g>
        <g id="g52">
            <g id="g54">
                <path
                    d="M35.938-14.505v2.678A3.975,3.975,0,0,1,33.011-10.7,3.437,3.437,0,0,1,30.5-11.7a3.455,3.455,0,0,1-1.009-2.58,3.43,3.43,0,0,1,1-2.562,3.438,3.438,0,0,1,2.5-.984,3.564,3.564,0,0,1,2.736,1.151l.049.049-.659.61A2.675,2.675,0,0,0,33-16.993a2.4,2.4,0,0,0-1.8.734,2.735,2.735,0,0,0-.71,1.982,2.691,2.691,0,0,0,.73,1.977,2.468,2.468,0,0,0,1.836.74,2.724,2.724,0,0,0,1.868-.556L35-12.189v-1.526H33.137v-.79h2.8Z"
                    fill="#e6e6e6" id="path56" />
            </g>
        </g>
    </g>
</svg>
