<svg height="45" viewBox="0 0 32.882 45" width="32.882" xmlns="http://www.w3.org/2000/svg">
    <g id="g20" transform="translate(-11.684 50.625)">
        <g id="g22">
            <g id="g24">
                <path
                    d="M11.684-7.534V-48.716a1.909,1.909,0,0,1,1.909-1.909H30.279L44.566-36.338v28.8a1.909,1.909,0,0,1-1.909,1.909H13.592a1.909,1.909,0,0,1-1.909-1.909Z"
                    fill="#2b2b2b" fill-rule="evenodd" id="path26" />
            </g>
        </g>
        <g id="g28">
            <g id="g30">
                <path d="M30.279-50.625,44.566-36.338H32.188a1.909,1.909,0,0,1-1.909-1.909Z"
                    fill="#525252" fill-rule="evenodd" id="path32" />
            </g>
        </g>
        <g id="g34">
            <g id="g36">
                <path
                    d="M17.764-17.72v6.872a2.743,2.743,0,0,1-.308,1.459,1.306,1.306,0,0,1-1.112.56,2.462,2.462,0,0,1-.359-.026,1.83,1.83,0,0,1-.273-.056c-.064-.02-.1-.033-.115-.039l.02-.741a1.5,1.5,0,0,0,.531.083.5.5,0,0,0,.524-.315,2.5,2.5,0,0,0,.125-.895v-6.9Z"
                    fill="#e6e6e6" id="path38" />
            </g>
        </g>
        <g id="g40">
            <g id="g42">
                <path
                    d="M23.552-15.755a1.837,1.837,0,0,1-.667,1.479,2.529,2.529,0,0,1-1.669.493h-.97v2.956H19.28V-17.72h1.936a2.508,2.508,0,0,1,1.669.488A1.873,1.873,0,0,1,23.552-15.755Zm-1.419.922a1.078,1.078,0,0,0,.419-.922,1.037,1.037,0,0,0-.419-.906,1.694,1.694,0,0,0-1-.269h-.892v2.356h.892A1.726,1.726,0,0,0,22.134-14.833Z"
                    fill="#e6e6e6" id="path44" />
            </g>
        </g>
        <g id="g46">
            <g id="g48">
                <path
                    d="M30.635-14.506v2.679a3.972,3.972,0,0,1-2.926,1.121A3.443,3.443,0,0,1,25.2-11.7a3.455,3.455,0,0,1-1.009-2.58,3.429,3.429,0,0,1,1-2.564,3.432,3.432,0,0,1,2.5-.983,3.564,3.564,0,0,1,2.736,1.151l.049.049-.657.61a2.68,2.68,0,0,0-2.128-.981,2.393,2.393,0,0,0-1.8.735,2.732,2.732,0,0,0-.709,1.983,2.691,2.691,0,0,0,.729,1.977,2.474,2.474,0,0,0,1.836.739,2.723,2.723,0,0,0,1.869-.556l.068-.072v-1.528H27.836v-.79h2.8Z"
                    fill="#e6e6e6" id="path50" />
            </g>
        </g>
    </g>
</svg>
