<svg height="45" viewBox="0 0 32.882 45" width="32.882" xmlns="http://www.w3.org/2000/svg">
    <g id="g20" transform="translate(-11.684 50.625)">
        <g id="g22">
            <g id="g24">
                <path
                    d="M11.684-7.534V-48.716a1.909,1.909,0,0,1,1.909-1.909H30.279L44.566-36.338v28.8a1.909,1.909,0,0,1-1.909,1.909H13.592a1.909,1.909,0,0,1-1.909-1.909Z"
                    fill="#2b2b2b" fill-rule="evenodd" id="path26" />
            </g>
        </g>
        <g id="g28">
            <g id="g30">
                <path d="M30.279-50.625,44.566-36.338H32.188a1.909,1.909,0,0,1-1.909-1.909Z"
                    fill="#525252" fill-rule="evenodd" id="path32" />
            </g>
        </g>
        <g id="g34">
            <g id="g36">
                <path
                    d="M21.07-15.755a1.837,1.837,0,0,1-.668,1.479,2.529,2.529,0,0,1-1.669.493h-.97v2.956H16.8V-17.72h1.936a2.508,2.508,0,0,1,1.669.488A1.873,1.873,0,0,1,21.07-15.755Zm-1.419.922a1.078,1.078,0,0,0,.419-.922,1.037,1.037,0,0,0-.419-.906,1.694,1.694,0,0,0-.995-.269h-.892v2.356h.892a1.726,1.726,0,0,0,.995-.259Z"
                    fill="#e6e6e6" id="path38" />
            </g>
        </g>
        <g id="g40">
            <g id="g42">
                <path
                    d="M26.372-15.755a1.837,1.837,0,0,1-.668,1.479,2.529,2.529,0,0,1-1.669.493h-.97v2.956H22.1V-17.72h1.936a2.508,2.508,0,0,1,1.669.488A1.873,1.873,0,0,1,26.372-15.755Zm-1.419.922a1.078,1.078,0,0,0,.419-.922,1.037,1.037,0,0,0-.419-.906,1.694,1.694,0,0,0-.995-.269h-.892v2.356h.892A1.726,1.726,0,0,0,24.954-14.833Z"
                    fill="#e6e6e6" id="path44" />
            </g>
        </g>
        <g id="g46">
            <g id="g48">
                <path d="M31.567-17.72v.81H29.626v6.083h-.965V-16.91H26.71v-.81Z" fill="#e6e6e6"
                    id="path50" />
            </g>
        </g>
    </g>
</svg>
